<svg xmlns="http://www.w3.org/2000/svg" width="512" height="512" style="shape-rendering:geometricPrecision;text-rendering:geometricPrecision;image-rendering:optimizeQuality;fill-rule:evenodd;clip-rule:evenodd"><path style="opacity:.997" fill="#518ef8" d="M94.5-.5h206c-.332 37.17.002 74.17 1 111 2.293 15.297 10.96 24.964 26 29a5843.172 5843.172 0 0 0 114 47c.167 99.001 0 198.001-.5 297-3.063 13.89-11.229 23.224-24.5 28h-322c-13.472-4.565-21.639-13.898-24.5-28-.667-152-.667-304 0-456 2.861-14.102 11.028-23.435 24.5-28z"/><path style="opacity:1" fill="#9bc4fb" d="M300.5-.5h2l1 2c-1.994 35.985-2.66 72.318-2 109-.998-36.83-1.332-73.83-1-111z"/><path style="opacity:1" fill="#abd0fc" d="M303.5 1.5c46 45.333 91.667 91 137 137a2916.974 2916.974 0 0 1-108 1h-5c-15.04-4.036-23.707-13.703-26-29-.66-36.682.006-73.015 2-109z"/><path style="opacity:1" fill="#597bcd" d="M440.5 138.5c.838.342 1.172 1.008 1 2-36.504.332-72.837-.002-109-1 36.171.332 72.171-.002 108-1z"/><path style="opacity:1" fill="#3a5bbc" d="M327.5 139.5h5c36.163.998 72.496 1.332 109 1v46a5843.172 5843.172 0 0 1-114-47z"/><path style="opacity:1" fill="#f2f6fe" d="M349.5 277.5v-20h-188v20c-.991-6.813-1.325-13.813-1-21h190c.325 7.187-.009 14.187-1 21z"/><path style="opacity:1" fill="#fefffe" d="M349.5 277.5h-188v-20h188v20z"/><path style="opacity:1" fill="#e9f1fd" d="M349.5 324.5v-20h-188v20c-.991-6.813-1.325-13.813-1-21h190c.325 7.187-.009 14.187-1 21z"/><path style="opacity:1" fill="#fefffe" d="M349.5 324.5h-188v-20h188v20z"/><path style="opacity:1" fill="#e1ebfd" d="M349.5 371.5v-20h-188v20c-.991-6.813-1.325-13.813-1-21h190c.325 7.187-.009 14.187-1 21z"/><path style="opacity:1" fill="#fefffe" d="M349.5 371.5h-188v-20h188v20z"/><path style="opacity:1" fill="#d7e5fd" d="M295.5 398.5h-134v20c-.991-6.813-1.325-13.813-1-21 45.17-.332 90.17.001 135 1z"/><path style="opacity:1" fill="#fefffe" d="M295.5 398.5v20h-134v-20h134z"/></svg>