<?xml version="1.0" encoding="UTF-8"?>
<!DOCTYPE svg PUBLIC "-//W3C//DTD SVG 1.1//EN" "http://www.w3.org/Graphics/SVG/1.1/DTD/svg11.dtd">
<svg xmlns="http://www.w3.org/2000/svg" version="1.1" width="512px" height="512px" style="shape-rendering:geometricPrecision; text-rendering:geometricPrecision; image-rendering:optimizeQuality; fill-rule:evenodd; clip-rule:evenodd" xmlns:xlink="http://www.w3.org/1999/xlink">
<g><path style="opacity:0.99" fill="#fe0000" d="M 388.5,219.5 C 370.751,170.42 337.751,136.086 289.5,116.5C 289.333,81.1651 289.5,45.8318 290,10.5C 291.167,8 293,6.16667 295.5,5C 369.913,7.82334 427.746,39.99 469,101.5C 490.66,135.801 501.327,173.134 501,213.5C 499.749,216.381 497.583,218.214 494.5,219C 459.168,219.5 423.835,219.667 388.5,219.5 Z"/></g>
<g><path style="opacity:0.995" fill="#0195fe" d="M 233.5,107.5 C 233.5,107.833 233.5,108.167 233.5,108.5C 176.758,109.285 131.924,132.619 99,178.5C 62.4704,236.982 61.137,296.316 95,356.5C 127.651,405.921 173.818,431.588 233.5,433.5C 233.5,457.833 233.5,482.167 233.5,506.5C 151.261,504.971 86.428,470.971 39,404.5C 16.7878,371.026 3.62113,334.36 -0.5,294.5C -0.5,279.833 -0.5,265.167 -0.5,250.5C 8.57756,175.63 44.2442,117.13 106.5,75C 143.376,51.4868 183.709,39.4868 227.5,39C 230,40.1667 231.833,42 233,44.5C 233.5,65.4974 233.667,86.4974 233.5,107.5 Z"/></g>
<g><path style="opacity:1" fill="#faf9f9" d="M 233.5,108.5 C 233.5,118.5 233.5,128.5 233.5,138.5C 176.98,141 136.48,167.666 112,218.5C 93.1845,267.935 99.8511,313.602 132,355.5C 158.794,386.269 192.628,401.936 233.5,402.5C 233.5,412.833 233.5,423.167 233.5,433.5C 173.818,431.588 127.651,405.921 95,356.5C 61.137,296.316 62.4704,236.982 99,178.5C 131.924,132.619 176.758,109.285 233.5,108.5 Z"/></g>
<g><path style="opacity:1" fill="#eae1de" d="M 233.5,107.5 C 252.665,107.472 271.331,110.472 289.5,116.5C 337.751,136.086 370.751,170.42 388.5,219.5C 393.865,235.359 396.532,251.692 396.5,268.5C 396.4,294.336 391.067,319.003 380.5,342.5C 368.919,366.084 352.585,385.751 331.5,401.5C 302.297,422.345 269.631,433.011 233.5,433.5C 233.5,423.167 233.5,412.833 233.5,402.5C 286.833,400.426 326.333,376.092 352,329.5C 375.084,277.437 369.084,229.104 334,184.5C 307.211,154.691 273.711,139.358 233.5,138.5C 233.5,128.5 233.5,118.5 233.5,108.5C 233.5,108.167 233.5,107.833 233.5,107.5 Z"/></g>
<g><path style="opacity:1" fill="#292929" d="M 233.5,138.5 C 273.711,139.358 307.211,154.691 334,184.5C 369.084,229.104 375.084,277.437 352,329.5C 326.333,376.092 286.833,400.426 233.5,402.5C 233.5,392.5 233.5,382.5 233.5,372.5C 239.367,372.132 243.867,369.466 247,364.5C 248.42,357.95 248.92,351.284 248.5,344.5C 278.874,341.628 294.041,324.961 294,294.5C 289.921,273.422 277.421,260.588 256.5,256C 248.841,255.5 241.174,255.334 233.5,255.5C 233.5,246.167 233.5,236.833 233.5,227.5C 246.244,225.203 257.244,228.37 266.5,237C 282.982,241.836 290.482,235.67 289,218.5C 279.374,204.269 265.874,197.269 248.5,197.5C 248.884,190.411 248.384,183.411 247,176.5C 243.807,171.653 239.307,168.986 233.5,168.5C 233.5,158.5 233.5,148.5 233.5,138.5 Z"/></g>
<g><path style="opacity:1" fill="#444444" d="M 233.5,138.5 C 233.5,148.5 233.5,158.5 233.5,168.5C 232.209,168.263 231.209,168.596 230.5,169.5C 225.013,170.813 221.18,174.147 219,179.5C 218.501,185.491 218.334,191.491 218.5,197.5C 195.442,198.057 180.609,209.39 174,231.5C 170.596,258.537 181.763,276.371 207.5,285C 216.16,285.5 224.827,285.666 233.5,285.5C 240.022,285.177 246.355,285.51 252.5,286.5C 246.167,286.5 239.833,286.5 233.5,286.5C 233.5,295.5 233.5,304.5 233.5,313.5C 226.833,313.5 220.167,313.5 213.5,313.5C 208.499,312.499 203.832,310.665 199.5,308C 191.025,305.821 184.858,308.654 181,316.5C 179.411,323.2 180.911,329.034 185.5,334C 195.278,341.314 206.278,344.48 218.5,343.5C 218.123,350.257 218.623,356.924 220,363.5C 221.905,367.698 225.072,370.364 229.5,371.5C 230.568,372.434 231.901,372.768 233.5,372.5C 233.5,382.5 233.5,392.5 233.5,402.5C 192.628,401.936 158.794,386.269 132,355.5C 99.8511,313.602 93.1845,267.935 112,218.5C 136.48,167.666 176.98,141 233.5,138.5 Z"/></g>
<g><path style="opacity:1" fill="#faf8f8" d="M 230.5,169.5 C 231.5,169.5 232.5,169.5 233.5,169.5C 233.5,188.833 233.5,208.167 233.5,227.5C 225.747,227.104 218.08,227.604 210.5,229C 203.494,233.949 201.661,240.449 205,248.5C 207.264,251.433 210.098,253.6 213.5,255C 220.158,255.5 226.825,255.666 233.5,255.5C 233.5,265.5 233.5,275.5 233.5,285.5C 224.827,285.666 216.16,285.5 207.5,285C 181.763,276.371 170.596,258.537 174,231.5C 180.609,209.39 195.442,198.057 218.5,197.5C 218.334,191.491 218.501,185.491 219,179.5C 221.18,174.147 225.013,170.813 230.5,169.5 Z"/></g>
<g><path style="opacity:1" fill="#e9e0dd" d="M 230.5,169.5 C 231.209,168.596 232.209,168.263 233.5,168.5C 239.307,168.986 243.807,171.653 247,176.5C 248.384,183.411 248.884,190.411 248.5,197.5C 265.874,197.269 279.374,204.269 289,218.5C 290.482,235.67 282.982,241.836 266.5,237C 257.244,228.37 246.244,225.203 233.5,227.5C 233.5,208.167 233.5,188.833 233.5,169.5C 232.5,169.5 231.5,169.5 230.5,169.5 Z"/></g>
<g><path style="opacity:1" fill="#444444" d="M 233.5,227.5 C 233.5,236.833 233.5,246.167 233.5,255.5C 226.825,255.666 220.158,255.5 213.5,255C 210.098,253.6 207.264,251.433 205,248.5C 201.661,240.449 203.494,233.949 210.5,229C 218.08,227.604 225.747,227.104 233.5,227.5 Z"/></g>
<g><path style="opacity:1" fill="#e9e0dd" d="M 233.5,255.5 C 241.174,255.334 248.841,255.5 256.5,256C 277.421,260.588 289.921,273.422 294,294.5C 294.041,324.961 278.874,341.628 248.5,344.5C 248.92,351.284 248.42,357.95 247,364.5C 243.867,369.466 239.367,372.132 233.5,372.5C 231.901,372.768 230.568,372.434 229.5,371.5C 230.833,371.5 232.167,371.5 233.5,371.5C 233.5,352.5 233.5,333.5 233.5,314.5C 226.646,314.824 219.979,314.491 213.5,313.5C 220.167,313.5 226.833,313.5 233.5,313.5C 240.175,313.666 246.842,313.5 253.5,313C 264.516,306.899 266.182,298.899 258.5,289C 256.593,287.878 254.593,287.045 252.5,286.5C 246.355,285.51 240.022,285.177 233.5,285.5C 233.5,275.5 233.5,265.5 233.5,255.5 Z"/></g>
<g><path style="opacity:0.992" fill="#ff9100" d="M 396.5,268.5 C 432.835,268.333 469.168,268.5 505.5,269C 508.023,270.36 510.023,272.193 511.5,274.5C 511.5,279.5 511.5,284.5 511.5,289.5C 504.427,338.485 482.093,378.985 444.5,411C 437.989,412.874 432.822,411.041 429,405.5C 412.825,384.47 396.658,363.47 380.5,342.5C 391.067,319.003 396.4,294.336 396.5,268.5 Z"/></g>
<g><path style="opacity:1" fill="#292929" d="M 252.5,286.5 C 254.593,287.045 256.593,287.878 258.5,289C 266.182,298.899 264.516,306.899 253.5,313C 246.842,313.5 240.175,313.666 233.5,313.5C 233.5,304.5 233.5,295.5 233.5,286.5C 239.833,286.5 246.167,286.5 252.5,286.5 Z"/></g>
<g><path style="opacity:1" fill="#faf8f8" d="M 213.5,313.5 C 219.979,314.491 226.646,314.824 233.5,314.5C 233.5,333.5 233.5,352.5 233.5,371.5C 232.167,371.5 230.833,371.5 229.5,371.5C 225.072,370.364 221.905,367.698 220,363.5C 218.623,356.924 218.123,350.257 218.5,343.5C 206.278,344.48 195.278,341.314 185.5,334C 180.911,329.034 179.411,323.2 181,316.5C 184.858,308.654 191.025,305.821 199.5,308C 203.832,310.665 208.499,312.499 213.5,313.5 Z"/></g>
<g><path style="opacity:1" fill="#005fe4" d="M 331.5,401.5 C 344.314,417.764 357.147,434.097 370,450.5C 372,454.5 372,458.5 370,462.5C 338.618,485.637 303.451,499.804 264.5,505C 254.203,506.226 243.87,506.726 233.5,506.5C 233.5,482.167 233.5,457.833 233.5,433.5C 269.631,433.011 302.297,422.345 331.5,401.5 Z"/></g>
</svg>
