<?xml version="1.0" encoding="UTF-8"?>
<!DOCTYPE svg PUBLIC "-//W3C//DTD SVG 1.1//EN" "http://www.w3.org/Graphics/SVG/1.1/DTD/svg11.dtd">
<svg xmlns="http://www.w3.org/2000/svg" version="1.1" width="512px" height="512px" style="shape-rendering:geometricPrecision; text-rendering:geometricPrecision; image-rendering:optimizeQuality; fill-rule:evenodd; clip-rule:evenodd" xmlns:xlink="http://www.w3.org/1999/xlink">
<g><path style="opacity:0.967" fill="#6b0a88" d="M 30.5,33.5 C 180.5,33.3333 330.5,33.5 480.5,34C 481,34.5 481.5,35 482,35.5C 482.5,84.4989 482.667,133.499 482.5,182.5C 495.335,184.007 503.502,191.007 507,203.5C 507.667,287.5 507.667,371.5 507,455.5C 503.644,467.522 495.81,474.688 483.5,477C 331.5,477.667 179.5,477.667 27.5,477C 15.1934,474.692 7.36011,467.526 4,455.5C 3.33333,346.5 3.33333,237.5 4,128.5C 8.04291,116.62 16.2096,109.62 28.5,107.5C 28.3334,83.4977 28.5,59.4977 29,35.5C 29.7172,34.9558 30.2172,34.2891 30.5,33.5 Z"/></g>
<g><path style="opacity:1" fill="#f3eeec" d="M 50.5,42.5 C 187.167,42.5 323.833,42.5 460.5,42.5C 460.5,88.8333 460.5,135.167 460.5,181.5C 395.167,181.5 329.833,181.5 264.5,181.5C 258.842,180.359 254.342,177.359 251,172.5C 239.333,154.833 227.667,137.167 216,119.5C 211.161,113.499 204.995,109.666 197.5,108C 148.501,107.5 99.5011,107.333 50.5,107.5C 50.5,85.8333 50.5,64.1667 50.5,42.5 Z"/></g>
<g><path style="opacity:1" fill="#d5d1ce" d="M 460.5,42.5 C 464.833,42.5 469.167,42.5 473.5,42.5C 473.5,88.8333 473.5,135.167 473.5,181.5C 469.167,181.5 464.833,181.5 460.5,181.5C 460.5,135.167 460.5,88.8333 460.5,42.5 Z"/></g>
<g><path style="opacity:1" fill="#b68cbe" d="M 264.5,181.5 C 329.833,181.5 395.167,181.5 460.5,181.5C 464.833,181.5 469.167,181.5 473.5,181.5C 473.5,135.167 473.5,88.8333 473.5,42.5C 469.167,42.5 464.833,42.5 460.5,42.5C 323.833,42.5 187.167,42.5 50.5,42.5C 46.1667,42.5 41.8333,42.5 37.5,42.5C 37.5,64.1667 37.5,85.8333 37.5,107.5C 36.5026,85.673 36.1693,63.673 36.5,41.5C 182.5,41.5 328.5,41.5 474.5,41.5C 474.5,88.5 474.5,135.5 474.5,182.5C 404.331,182.833 334.331,182.499 264.5,181.5 Z"/></g>
<g><path style="opacity:1" fill="#fefffe" d="M 50.5,42.5 C 50.5,64.1667 50.5,85.8333 50.5,107.5C 46.1667,107.5 41.8333,107.5 37.5,107.5C 37.5,85.8333 37.5,64.1667 37.5,42.5C 41.8333,42.5 46.1667,42.5 50.5,42.5 Z"/></g>
<g><path style="opacity:1" fill="#690589" d="M 72.5,73.5 C 194.5,73.3333 316.5,73.5 438.5,74C 441.167,76.3333 441.167,78.6667 438.5,81C 316.5,81.6667 194.5,81.6667 72.5,81C 69.9142,78.506 69.9142,76.006 72.5,73.5 Z"/></g>
<g><path style="opacity:1" fill="#6b0a8a" d="M 253.5,107.5 C 315.168,107.333 376.834,107.5 438.5,108C 440.648,110.075 440.982,112.408 439.5,115C 377.5,115.667 315.5,115.667 253.5,115C 250.914,112.506 250.914,110.006 253.5,107.5 Z"/></g>
<g><path style="opacity:1" fill="#fbdf6a" d="M 27.5,116.5 C 30.5184,116.335 33.5184,116.502 36.5,117C 32.4495,120.721 29.6162,125.221 28,130.5C 27.5,151.497 27.3334,172.497 27.5,193.5C 25.9826,193.511 24.8159,194.177 24,195.5C 23.3333,204.833 23.3333,214.167 24,223.5C 24.7083,224.381 25.5416,225.047 26.5,225.5C 27.3302,301.097 27.8302,376.763 28,452.5C 29.3844,458.942 32.5511,464.276 37.5,468.5C 24.4511,470.266 15.9511,464.933 12,452.5C 11.3333,345.5 11.3333,238.5 12,131.5C 14.4231,123.576 19.5897,118.576 27.5,116.5 Z"/></g>
<g><path style="opacity:1" fill="#fbc14c" d="M 27.5,116.5 C 55.3313,115.833 83.3313,115.5 111.5,115.5C 140.88,115.349 170.213,115.849 199.5,117C 203.24,118.29 206.407,120.457 209,123.5C 221.419,142.672 234.085,161.672 247,180.5C 251.502,185.337 257.002,188.503 263.5,190C 333.499,190.5 403.499,190.667 473.5,190.5C 478.167,194.49 481.334,199.49 483,205.5C 483.667,288.167 483.667,370.833 483,453.5C 481.334,459.51 478.167,464.51 473.5,468.5C 328.167,468.5 182.833,468.5 37.5,468.5C 32.5511,464.276 29.3844,458.942 28,452.5C 27.8302,376.763 27.3302,301.097 26.5,225.5C 28.3904,225.703 29.8904,225.037 31,223.5C 31.6667,214.167 31.6667,204.833 31,195.5C 30.1841,194.177 29.0174,193.511 27.5,193.5C 27.3334,172.497 27.5,151.497 28,130.5C 29.6162,125.221 32.4495,120.721 36.5,117C 33.5184,116.502 30.5184,116.335 27.5,116.5 Z"/></g>
<g><path style="opacity:1" fill="#6e148c" d="M 253.5,141.5 C 315.168,141.333 376.834,141.5 438.5,142C 440.648,144.075 440.982,146.408 439.5,149C 377.164,149.833 314.831,149.667 252.5,148.5C 251.073,145.884 251.406,143.551 253.5,141.5 Z"/></g>
<g><path style="opacity:1" fill="#dda32e" d="M 473.5,190.5 C 485.788,189.222 494.288,194.222 499,205.5C 499.667,287.833 499.667,370.167 499,452.5C 495.066,464.909 486.566,470.243 473.5,468.5C 478.167,464.51 481.334,459.51 483,453.5C 483.667,370.833 483.667,288.167 483,205.5C 481.334,199.49 478.167,194.49 473.5,190.5 Z"/></g>
<g><path style="opacity:1" fill="#6b0988" d="M 27.5,193.5 C 29.0174,193.511 30.1841,194.177 31,195.5C 31.6667,204.833 31.6667,214.167 31,223.5C 29.8904,225.037 28.3904,225.703 26.5,225.5C 25.5416,225.047 24.7083,224.381 24,223.5C 23.3333,214.167 23.3333,204.833 24,195.5C 24.8159,194.177 25.9826,193.511 27.5,193.5 Z"/></g>
<g><path style="opacity:1" fill="#6a0c88" d="M 253.5,209.5 C 255.655,209.372 257.655,209.872 259.5,211C 293,230.5 326.5,250 360,269.5C 359.284,350.295 324.45,411.295 255.5,452.5C 186.222,411.126 151.555,349.96 151.5,269C 185.727,249.392 219.727,229.559 253.5,209.5 Z"/></g>
<g><path style="opacity:1" fill="#576ea4" d="M 254.5,218.5 C 287.353,236.511 319.853,255.178 352,274.5C 350.207,340.256 323.373,393.089 271.5,433C 266.031,436.303 260.698,439.803 255.5,443.5C 196.24,406.193 163.907,352.36 158.5,282C 158.667,279.5 158.833,277 159,274.5C 190.814,255.681 222.648,237.014 254.5,218.5 Z"/></g>
<g><path style="opacity:1" fill="#6a0e8b" d="M 305.5,283.5 C 306.873,283.343 308.207,283.51 309.5,284C 315.635,291.136 322.135,297.969 329,304.5C 329.687,306.568 329.52,308.568 328.5,310.5C 302.016,335.15 275.682,359.984 249.5,385C 247.833,385.667 246.167,385.667 244.5,385C 225.99,366.789 207.823,348.289 190,329.5C 189.313,327.432 189.48,325.432 190.5,323.5C 197.562,316.434 204.895,309.767 212.5,303.5C 224.773,314.105 236.44,325.439 247.5,337.5C 267.181,319.817 286.514,301.817 305.5,283.5 Z"/></g>
<g><path style="opacity:1" fill="#f2eceb" d="M 306.5,293.5 C 310.464,296.963 314.298,300.63 318,304.5C 318.982,305.759 319.315,307.092 319,308.5C 295,331.167 271,353.833 247,376.5C 230.984,359.985 215.151,343.318 199.5,326.5C 203.5,321.833 207.833,317.5 212.5,313.5C 223.292,324.792 234.292,335.959 245.5,347C 246.833,347.667 248.167,347.667 249.5,347C 268.697,329.3 287.697,311.467 306.5,293.5 Z"/></g>
</svg>
