<?xml version="1.0" encoding="UTF-8"?>
<!DOCTYPE svg PUBLIC "-//W3C//DTD SVG 1.1//EN" "http://www.w3.org/Graphics/SVG/1.1/DTD/svg11.dtd">
<svg xmlns="http://www.w3.org/2000/svg" version="1.1" width="512px" height="512px" style="shape-rendering:geometricPrecision; text-rendering:geometricPrecision; image-rendering:optimizeQuality; fill-rule:evenodd; clip-rule:evenodd" xmlns:xlink="http://www.w3.org/1999/xlink">
<g><path style="opacity:0.996" fill="#f0ce85" d="M 24.5,9.5 C 82.8343,9.33334 141.168,9.50001 199.5,10C 209.138,12.9688 214.304,19.4688 215,29.5C 215.667,64.1667 215.667,98.8333 215,133.5C 214.274,143.556 209.108,150.056 199.5,153C 141.5,153.667 83.5,153.667 25.5,153C 17.4437,151.278 12.277,146.444 10,138.5C 9.33333,100.5 9.33333,62.5 10,24.5C 12.3509,16.9841 17.1842,11.9841 24.5,9.5 Z"/></g>
<g><path style="opacity:0.996" fill="#fb8097" d="M 270.5,9.5 C 342.501,9.33334 414.501,9.5 486.5,10C 494,12.1667 498.833,17 501,24.5C 501.667,89.8333 501.667,155.167 501,220.5C 498.742,228.389 493.575,233.222 485.5,235C 414.167,235.667 342.833,235.667 271.5,235C 263.87,233.373 258.704,228.873 256,221.5C 255.333,155.5 255.333,89.5 256,23.5C 258.774,16.5569 263.607,11.8903 270.5,9.5 Z"/></g>
<g><path style="opacity:0.992" fill="#81e6fa" d="M 25.5,193.5 C 83.1676,193.333 140.834,193.5 198.5,194C 208.674,196.51 214.174,203.01 215,213.5C 215.667,302.833 215.667,392.167 215,481.5C 214.304,491.531 209.138,498.031 199.5,501C 141.167,501.667 82.8333,501.667 24.5,501C 17,498.833 12.1667,494 10,486.5C 9.33333,393.833 9.33333,301.167 10,208.5C 12.5032,200.679 17.6699,195.679 25.5,193.5 Z"/></g>
<g><path style="opacity:0.998" fill="#bb9bf1" d="M 271.5,275.5 C 342.834,275.333 414.167,275.5 485.5,276C 493.536,277.768 498.702,282.601 501,290.5C 501.667,355.833 501.667,421.167 501,486.5C 498.833,494 494,498.833 486.5,501C 414.5,501.667 342.5,501.667 270.5,501C 263.427,498.928 258.594,494.428 256,487.5C 255.333,421.5 255.333,355.5 256,289.5C 258.877,282.114 264.044,277.448 271.5,275.5 Z"/></g>
</svg>
