<?xml version="1.0" encoding="UTF-8"?>
<!DOCTYPE svg PUBLIC "-//W3C//DTD SVG 1.1//EN" "http://www.w3.org/Graphics/SVG/1.1/DTD/svg11.dtd">
<svg xmlns="http://www.w3.org/2000/svg" version="1.1" width="512px" height="512px" style="shape-rendering:geometricPrecision; text-rendering:geometricPrecision; image-rendering:optimizeQuality; fill-rule:evenodd; clip-rule:evenodd" xmlns:xlink="http://www.w3.org/1999/xlink">
<g><path style="opacity:1" fill="#25b1fa" d="M 367.5,41.5 C 367.667,187.5 367.5,333.5 367,479.5C 366.427,481.641 365.594,483.641 364.5,485.5C 363.711,485.783 363.044,486.283 362.5,487C 251.167,487.667 139.833,487.667 28.5,487C 26.6667,485.833 25.1667,484.333 24,482.5C 23.3333,331.167 23.3333,179.833 24,28.5C 25.1667,26.6667 26.6667,25.1667 28.5,24C 139.833,23.3333 251.167,23.3333 362.5,24C 364.333,25.1667 365.833,26.6667 367,28.5C 367.499,32.8206 367.666,37.1539 367.5,41.5 Z"/></g>
<g><path style="opacity:1" fill="#e5ad3e" d="M 367.5,41.5 C 372.787,42.7146 378.12,43.7146 383.5,44.5C 383.5,192.167 383.5,339.833 383.5,487.5C 377.824,487.666 372.157,487.499 366.5,487C 365.956,486.283 365.289,485.783 364.5,485.5C 365.594,483.641 366.427,481.641 367,479.5C 367.5,333.5 367.667,187.5 367.5,41.5 Z"/></g>
<g><path style="opacity:0.994" fill="#fdbf44" d="M 383.5,44.5 C 415.862,50.116 448.195,55.9494 480.5,62C 484.276,64.2121 486.276,67.5455 486.5,72C 463.495,208.195 440.329,344.361 417,480.5C 416.214,483.583 414.381,485.749 411.5,487C 402.173,487.5 392.839,487.666 383.5,487.5C 383.5,339.833 383.5,192.167 383.5,44.5 Z"/></g>
<g><path style="opacity:1" fill="#fbfefe" d="M 55.5,47.5 C 71.5,47.5 87.5,47.5 103.5,47.5C 103.5,52.8333 103.5,58.1667 103.5,63.5C 87.5,63.5 71.5,63.5 55.5,63.5C 55.5,58.1667 55.5,52.8333 55.5,47.5 Z"/></g>
<g><path style="opacity:1" fill="#fbfefe" d="M 295.5,47.5 C 300.833,47.5 306.167,47.5 311.5,47.5C 311.5,52.8333 311.5,58.1667 311.5,63.5C 306.167,63.5 300.833,63.5 295.5,63.5C 295.5,58.1667 295.5,52.8333 295.5,47.5 Z"/></g>
<g><path style="opacity:1" fill="#fbfefe" d="M 327.5,47.5 C 332.833,47.5 338.167,47.5 343.5,47.5C 343.5,52.8333 343.5,58.1667 343.5,63.5C 338.167,63.5 332.833,63.5 327.5,63.5C 327.5,58.1667 327.5,52.8333 327.5,47.5 Z"/></g>
<g><path style="opacity:1" fill="#fbfdfe" d="M 198.5,55.5 C 222.184,65.8973 245.851,76.3973 269.5,87C 270.315,143.217 246.982,186.05 199.5,215.5C 177.143,201.976 159.309,183.976 146,161.5C 141.879,153.136 138.545,144.469 136,135.5C 132.878,119.675 130.045,103.842 127.5,88C 151.226,77.1342 174.893,66.3008 198.5,55.5 Z"/></g>
<g><path style="opacity:1" fill="#fbfefe" d="M 55.5,79.5 C 66.1667,79.5 76.8333,79.5 87.5,79.5C 87.5,84.8333 87.5,90.1667 87.5,95.5C 76.8333,95.5 66.1667,95.5 55.5,95.5C 55.5,90.1667 55.5,84.8333 55.5,79.5 Z"/></g>
<g><path style="opacity:1" fill="#2db2fa" d="M 232.5,98.5 C 236.737,101.228 240.571,104.561 244,108.5C 244.667,109.167 244.667,109.833 244,110.5C 227.805,127.029 211.305,143.196 194.5,159C 191.697,159.755 189.03,159.422 186.5,158C 178.167,149.667 169.833,141.333 161.5,133C 165.046,129.118 168.879,125.618 173,122.5C 179.305,127.97 185.472,133.636 191.5,139.5C 205.521,126.146 219.188,112.479 232.5,98.5 Z"/></g>
<g><path style="opacity:1" fill="#fbfefe" d="M 183.5,247.5 C 223.5,247.5 263.5,247.5 303.5,247.5C 303.5,252.833 303.5,258.167 303.5,263.5C 263.5,263.5 223.5,263.5 183.5,263.5C 183.5,258.167 183.5,252.833 183.5,247.5 Z"/></g>
<g><path style="opacity:1" fill="#81dafe" d="M 143.5,287.5 C 134.365,297.473 125.365,307.639 116.5,318C 113.167,320 109.833,320 106.5,318C 98.1232,309.958 90.1232,301.625 82.5,293C 85.3333,288.833 88.8333,285.333 93,282.5C 99.2902,287.788 105.29,293.455 111,299.5C 121.42,288.254 131.253,276.587 140.5,264.5C 144.812,259.854 149.145,255.187 153.5,250.5C 157.687,253.764 161.687,257.264 165.5,261C 157.932,269.726 150.599,278.559 143.5,287.5 Z"/></g>
<g><path style="opacity:1" fill="#fbfdfe" d="M 140.5,264.5 C 131.253,276.587 121.42,288.254 111,299.5C 105.29,293.455 99.2902,287.788 93,282.5C 88.8333,285.333 85.3333,288.833 82.5,293C 90.1232,301.625 98.1232,309.958 106.5,318C 109.833,320 113.167,320 116.5,318C 125.365,307.639 134.365,297.473 143.5,287.5C 143.667,298.172 143.5,308.839 143,319.5C 141.14,328.027 135.973,333.194 127.5,335C 111.167,335.667 94.8333,335.667 78.5,335C 70.5648,332.732 65.7315,327.565 64,319.5C 63.3333,303.167 63.3333,286.833 64,270.5C 66.1667,263 71,258.167 78.5,256C 94.8333,255.333 111.167,255.333 127.5,256C 132.896,257.355 137.229,260.188 140.5,264.5 Z"/></g>
<g><path style="opacity:1" fill="#fbfefe" d="M 183.5,287.5 C 196.833,287.5 210.167,287.5 223.5,287.5C 223.5,292.833 223.5,298.167 223.5,303.5C 210.167,303.5 196.833,303.5 183.5,303.5C 183.5,298.167 183.5,292.833 183.5,287.5 Z"/></g>
<g><path style="opacity:1" fill="#fbfefe" d="M 239.5,287.5 C 260.833,287.5 282.167,287.5 303.5,287.5C 303.5,292.833 303.5,298.167 303.5,303.5C 282.167,303.5 260.833,303.5 239.5,303.5C 239.5,298.167 239.5,292.833 239.5,287.5 Z"/></g>
<g><path style="opacity:1" fill="#fbfefe" d="M 183.5,367.5 C 223.5,367.5 263.5,367.5 303.5,367.5C 303.5,372.833 303.5,378.167 303.5,383.5C 263.5,383.5 223.5,383.5 183.5,383.5C 183.5,378.167 183.5,372.833 183.5,367.5 Z"/></g>
<g><path style="opacity:1" fill="#81dafe" d="M 143.5,407.5 C 134.365,417.473 125.365,427.639 116.5,438C 113.167,440 109.833,440 106.5,438C 98.1232,429.958 90.1232,421.625 82.5,413C 85.3333,408.833 88.8333,405.333 93,402.5C 99.2902,407.788 105.29,413.455 111,419.5C 121.42,408.254 131.253,396.587 140.5,384.5C 144.812,379.854 149.145,375.187 153.5,370.5C 157.687,373.764 161.687,377.264 165.5,381C 157.932,389.726 150.599,398.559 143.5,407.5 Z"/></g>
<g><path style="opacity:1" fill="#fbfdfe" d="M 140.5,384.5 C 131.253,396.587 121.42,408.254 111,419.5C 105.29,413.455 99.2902,407.788 93,402.5C 88.8333,405.333 85.3333,408.833 82.5,413C 90.1232,421.625 98.1232,429.958 106.5,438C 109.833,440 113.167,440 116.5,438C 125.365,427.639 134.365,417.473 143.5,407.5C 143.667,418.172 143.5,428.839 143,439.5C 141.14,448.027 135.973,453.194 127.5,455C 111.167,455.667 94.8333,455.667 78.5,455C 70.5648,452.732 65.7315,447.565 64,439.5C 63.3333,423.167 63.3333,406.833 64,390.5C 66.1667,383 71,378.167 78.5,376C 94.8333,375.333 111.167,375.333 127.5,376C 132.896,377.355 137.229,380.188 140.5,384.5 Z"/></g>
<g><path style="opacity:1" fill="#fbfefe" d="M 183.5,407.5 C 196.833,407.5 210.167,407.5 223.5,407.5C 223.5,412.833 223.5,418.167 223.5,423.5C 210.167,423.5 196.833,423.5 183.5,423.5C 183.5,418.167 183.5,412.833 183.5,407.5 Z"/></g>
<g><path style="opacity:1" fill="#fbfefe" d="M 239.5,407.5 C 260.833,407.5 282.167,407.5 303.5,407.5C 303.5,412.833 303.5,418.167 303.5,423.5C 282.167,423.5 260.833,423.5 239.5,423.5C 239.5,418.167 239.5,412.833 239.5,407.5 Z"/></g>
</svg>
