<?xml version="1.0" encoding="UTF-8"?>
<!DOCTYPE svg PUBLIC "-//W3C//DTD SVG 1.1//EN" "http://www.w3.org/Graphics/SVG/1.1/DTD/svg11.dtd">
<svg xmlns="http://www.w3.org/2000/svg" version="1.1" width="512px" height="512px" style="shape-rendering:geometricPrecision; text-rendering:geometricPrecision; image-rendering:optimizeQuality; fill-rule:evenodd; clip-rule:evenodd" xmlns:xlink="http://www.w3.org/1999/xlink">
<g><path style="opacity:0.997" fill="#1cddda" d="M 232.5,-0.5 C 247.833,-0.5 263.167,-0.5 278.5,-0.5C 361.304,9.13781 425.804,48.4711 472,117.5C 494.472,153.416 507.638,192.416 511.5,234.5C 511.5,248.5 511.5,262.5 511.5,276.5C 499.483,375.326 448.816,446.493 359.5,490C 332.498,501.583 304.498,508.75 275.5,511.5C 261.833,511.5 248.167,511.5 234.5,511.5C 133.813,499.25 61.9796,447.25 19,355.5C 8.86392,330.621 2.36392,304.954 -0.5,278.5C -0.5,263.167 -0.5,247.833 -0.5,232.5C 9.81928,145.987 51.8193,79.8206 125.5,34C 158.835,14.9427 194.502,3.44269 232.5,-0.5 Z"/></g>
<g><path style="opacity:1" fill="#d6ebfd" d="M 279.5,91.5 C 279.167,126.506 279.5,161.506 280.5,196.5C 316.79,197.493 353.124,197.827 389.5,197.5C 389.833,271.17 389.5,344.836 388.5,418.5C 299.833,419.833 211.167,419.833 122.5,418.5C 121.808,417.975 121.308,417.308 121,416.5C 120.333,309.167 120.333,201.833 121,94.5C 121.5,93.3333 122.333,92.5 123.5,92C 175.499,91.5 227.499,91.3333 279.5,91.5 Z"/></g>
<g><path style="opacity:1" fill="#97b5da" d="M 279.5,91.5 C 281.167,91.5 282.833,91.5 284.5,91.5C 319.172,124.838 354.172,157.838 389.5,190.5C 389.5,192.833 389.5,195.167 389.5,197.5C 353.124,197.827 316.79,197.493 280.5,196.5C 279.5,161.506 279.167,126.506 279.5,91.5 Z"/></g>
<g><path style="opacity:1" fill="#d7ebfd" d="M 284.5,91.5 C 318.835,91.3333 353.168,91.5 387.5,92C 388,92.5 388.5,93 389,93.5C 389.5,125.832 389.667,158.165 389.5,190.5C 354.172,157.838 319.172,124.838 284.5,91.5 Z"/></g>
<g><path style="opacity:1" fill="#3f88d0" d="M 145.5,117.5 C 184.501,117.333 223.501,117.5 262.5,118C 263,118.5 263.5,119 264,119.5C 264.667,136.167 264.667,152.833 264,169.5C 263.5,170 263,170.5 262.5,171C 223.5,171.667 184.5,171.667 145.5,171C 145,170.5 144.5,170 144,169.5C 143.333,152.833 143.333,136.167 144,119.5C 144.717,118.956 145.217,118.289 145.5,117.5 Z"/></g>
<g><path style="opacity:1" fill="#3c87d0" d="M 146.5,229.5 C 219.167,229.333 291.834,229.5 364.5,230C 365.833,232 365.833,234 364.5,236C 291.833,236.667 219.167,236.667 146.5,236C 145.232,233.837 145.232,231.67 146.5,229.5 Z"/></g>
<g><path style="opacity:1" fill="#448bd2" d="M 147.5,266.5 C 219.501,266.333 291.501,266.5 363.5,267C 365.648,269.075 365.982,271.408 364.5,274C 291.833,274.667 219.167,274.667 146.5,274C 145.083,271.257 145.416,268.757 147.5,266.5 Z"/></g>
<g><path style="opacity:1" fill="#468cd2" d="M 146.5,304.5 C 219.167,304.333 291.834,304.5 364.5,305C 365.982,307.592 365.648,309.925 363.5,312C 291.5,312.667 219.5,312.667 147.5,312C 145.285,309.758 144.952,307.258 146.5,304.5 Z"/></g>
<g><path style="opacity:1" fill="#468cd2" d="M 147.5,341.5 C 219.501,341.333 291.501,341.5 363.5,342C 365.648,344.075 365.982,346.408 364.5,349C 291.833,349.667 219.167,349.667 146.5,349C 145.083,346.257 145.416,343.757 147.5,341.5 Z"/></g>
<g><path style="opacity:1" fill="#428ad1" d="M 146.5,379.5 C 219.167,379.333 291.834,379.5 364.5,380C 365.833,382.333 365.833,384.667 364.5,387C 291.833,387.667 219.167,387.667 146.5,387C 145.221,384.502 145.221,382.002 146.5,379.5 Z"/></g>
</svg>
