<?xml version="1.0" encoding="UTF-8"?>
<!DOCTYPE svg PUBLIC "-//W3C//DTD SVG 1.1//EN" "http://www.w3.org/Graphics/SVG/1.1/DTD/svg11.dtd">
<svg xmlns="http://www.w3.org/2000/svg" version="1.1" width="512px" height="512px" style="shape-rendering:geometricPrecision; text-rendering:geometricPrecision; image-rendering:optimizeQuality; fill-rule:evenodd; clip-rule:evenodd" xmlns:xlink="http://www.w3.org/1999/xlink">
<g><path style="opacity:0.983" fill="#fec81d" d="M 335.5,188.5 C 332.178,189.658 330.012,191.992 329,195.5C 327.928,200.811 326.928,206.145 326,211.5C 322.382,218.605 316.549,222.272 308.5,222.5C 303.655,222.052 298.988,220.885 294.5,219C 285.813,218.342 279.48,221.842 275.5,229.5C 269.117,237.234 261.117,239.4 251.5,236C 248.172,234.521 245.506,232.355 243.5,229.5C 243.067,226.805 241.734,224.638 239.5,223C 234.603,219.776 229.27,218.442 223.5,219C 210.424,225.931 200.257,223.097 193,210.5C 192.245,204.346 190.912,198.346 189,192.5C 187.549,190.536 185.716,189.203 183.5,188.5C 182.942,187.21 181.942,186.377 180.5,186C 167.031,185.192 159.364,178.192 157.5,165C 159.838,157.993 162.172,150.993 164.5,144C 164.212,140.681 163.379,137.515 162,134.5C 145.227,118.353 147.06,104.687 167.5,93.5C 171.527,89.9238 173.527,85.4238 173.5,80C 168.599,56.7988 177.933,46.4655 201.5,49C 207.113,47.7178 211.28,44.5512 214,39.5C 217.765,24.0354 227.265,18.5354 242.5,23C 247.351,27.4255 253.018,30.2589 259.5,31.5C 261.867,31.1583 264.2,30.6583 266.5,30C 270.569,26.9368 274.902,24.2701 279.5,22C 293.768,20.2551 302.601,26.4218 306,40.5C 311.4,48.3016 318.734,50.9683 328,48.5C 345.337,52.3235 351.17,62.8235 345.5,80C 346.064,86.1289 348.731,91.1289 353.5,95C 366.416,99.9993 370.916,109.166 367,122.5C 364.757,126.748 361.757,130.414 358,133.5C 356.142,136.763 354.975,140.263 354.5,144C 355.983,150.124 358.15,155.958 361,161.5C 362.245,169.429 359.745,175.929 353.5,181C 348.754,183.416 343.754,185.083 338.5,186C 337.429,186.852 336.429,187.685 335.5,188.5 Z"/></g>
<g><path style="opacity:1" fill="#fea91a" d="M 247.5,49.5 C 295.808,46.9927 326.308,68.9927 339,115.5C 343.235,156.861 326.735,186.361 289.5,204C 248.569,217.267 215.735,206.433 191,171.5C 171.03,132.823 176.53,98.3229 207.5,68C 219.423,58.6435 232.756,52.4768 247.5,49.5 Z"/></g>
<g><path style="opacity:1" fill="#f7921a" d="M 269.5,60.5 C 277.828,69.4915 283.828,79.8249 287.5,91.5C 274.383,109.124 261.049,126.624 247.5,144C 246.5,144.667 245.5,144.667 244.5,144C 237.833,137.667 231.167,131.333 224.5,125C 218.11,118.847 211.943,119.014 206,125.5C 204,129.833 204,134.167 206,138.5C 218.492,151.173 231.659,162.84 245.5,173.5C 240.843,175.753 235.843,177.253 230.5,178C 223.842,178.5 217.175,178.666 210.5,178.5C 190.693,157.592 185.193,133.258 194,105.5C 208.666,72.9159 233.833,57.9159 269.5,60.5 Z"/></g>
<g><path style="opacity:1" fill="#ef7816" d="M 269.5,60.5 C 306.356,68.525 326.356,91.3583 329.5,129C 326.277,168.89 304.943,192.223 265.5,199C 243.896,200.515 225.563,193.682 210.5,178.5C 217.175,178.666 223.842,178.5 230.5,178C 235.843,177.253 240.843,175.753 245.5,173.5C 251.864,173.802 256.531,171.136 259.5,165.5C 271.524,157.799 279.857,147.132 284.5,133.5C 290.704,123.782 297.538,114.449 305,105.5C 306.693,91.3571 300.86,86.6905 287.5,91.5C 283.828,79.8249 277.828,69.4915 269.5,60.5 Z"/></g>
<g><path style="opacity:1" fill="#fffdfc" d="M 284.5,133.5 C 275.695,143.765 267.362,154.432 259.5,165.5C 256.531,171.136 251.864,173.802 245.5,173.5C 231.659,162.84 218.492,151.173 206,138.5C 204,134.167 204,129.833 206,125.5C 211.943,119.014 218.11,118.847 224.5,125C 231.167,131.333 237.833,137.667 244.5,144C 245.5,144.667 246.5,144.667 247.5,144C 261.049,126.624 274.383,109.124 287.5,91.5C 300.86,86.6905 306.693,91.3571 305,105.5C 297.538,114.449 290.704,123.782 284.5,133.5 Z"/></g>
<g><path style="opacity:1" fill="#f79524" d="M 284.5,133.5 C 279.857,147.132 271.524,157.799 259.5,165.5C 267.362,154.432 275.695,143.765 284.5,133.5 Z"/></g>
<g><path style="opacity:0.986" fill="#e6394f" d="M 183.5,188.5 C 185.716,189.203 187.549,190.536 189,192.5C 190.912,198.346 192.245,204.346 193,210.5C 200.257,223.097 210.424,225.931 223.5,219C 229.27,218.442 234.603,219.776 239.5,223C 241.734,224.638 243.067,226.805 243.5,229.5C 231.427,248.639 219.593,267.972 208,287.5C 204.087,293.617 199.754,293.951 195,288.5C 190.293,280.251 185.459,272.084 180.5,264C 169.053,263.264 157.719,261.93 146.5,260C 144.522,257.503 144.022,254.669 145,251.5C 158.358,230.778 171.191,209.778 183.5,188.5 Z"/></g>
<g><path style="opacity:0.988" fill="#e6394f" d="M 335.5,188.5 C 347.487,209.14 359.987,229.473 373,249.5C 375.159,253.192 374.993,256.692 372.5,260C 361.256,261.887 349.923,263.387 338.5,264.5C 333.082,273.001 327.915,281.668 323,290.5C 320.757,292.282 318.257,292.782 315.5,292C 313.291,290.127 311.458,287.96 310,285.5C 298.725,266.602 287.225,247.935 275.5,229.5C 279.48,221.842 285.813,218.342 294.5,219C 298.988,220.885 303.655,222.052 308.5,222.5C 316.549,222.272 322.382,218.605 326,211.5C 326.928,206.145 327.928,200.811 329,195.5C 330.012,191.992 332.178,189.658 335.5,188.5 Z"/></g>
<g><path style="opacity:0.996" fill="#fbc3ad" d="M 465.5,285.5 C 465.054,291.996 462.888,297.996 459,303.5C 418.167,344.333 377.333,385.167 336.5,426C 325.903,435.465 313.57,441.465 299.5,444C 242.168,444.5 184.834,444.667 127.5,444.5C 127.5,416.167 127.5,387.833 127.5,359.5C 132.511,359.666 137.511,359.499 142.5,359C 157.196,344.638 171.529,329.971 185.5,315C 193.964,307.935 203.631,303.268 214.5,301C 242.5,300.333 270.5,300.333 298.5,301C 304.518,302.485 309.185,305.651 312.5,310.5C 317.659,331.354 309.992,344.854 289.5,351C 272.833,351.333 256.167,351.667 239.5,352C 236.833,354.667 236.833,357.333 239.5,360C 259.853,360.773 280.187,360.607 300.5,359.5C 315.504,359.667 330.504,359.5 345.5,359C 347.949,358.275 350.283,357.275 352.5,356C 379.167,330 405.833,304 432.5,278C 445.473,272.705 456.473,275.205 465.5,285.5 Z"/></g>
<g><path style="opacity:1" fill="#f2ad97" d="M 465.5,285.5 C 473.304,295.9 473.471,306.566 466,317.5C 424.5,359 383,400.5 341.5,442C 331.071,450.88 319.071,456.547 305.5,459C 246.168,459.5 186.834,459.667 127.5,459.5C 127.5,454.5 127.5,449.5 127.5,444.5C 184.834,444.667 242.168,444.5 299.5,444C 313.57,441.465 325.903,435.465 336.5,426C 377.333,385.167 418.167,344.333 459,303.5C 462.888,297.996 465.054,291.996 465.5,285.5 Z"/></g>
<g><path style="opacity:1" fill="#fed1bf" d="M 278.5,311.5 C 298.578,310.64 306.078,319.974 301,339.5C 295.089,348.803 287.089,351.47 277,347.5C 276.333,336.167 276.333,324.833 277,313.5C 277.717,312.956 278.217,312.289 278.5,311.5 Z"/></g>
<g><path style="opacity:1" fill="#f2ae98" d="M 312.5,310.5 C 319.509,317.711 322.009,326.377 320,336.5C 317.242,347.418 310.742,355.085 300.5,359.5C 280.187,360.607 259.853,360.773 239.5,360C 236.833,357.333 236.833,354.667 239.5,352C 256.167,351.667 272.833,351.333 289.5,351C 309.992,344.854 317.659,331.354 312.5,310.5 Z"/></g>
<g><path style="opacity:0.985" fill="#478cf6" d="M 87.5,329.5 C 87.9818,367.895 87.4818,406.228 86,444.5C 84.3626,446.81 82.196,448.31 79.5,449C 66.1708,449.5 52.8375,449.667 39.5,449.5C 39.3333,412.165 39.5,374.832 40,337.5C 41.3956,332.772 44.5623,330.272 49.5,330C 62.1623,329.5 74.8289,329.333 87.5,329.5 Z"/></g>
<g><path style="opacity:1" fill="#367ce1" d="M 87.5,329.5 C 97.5,329.5 107.5,329.5 117.5,329.5C 114.375,330.479 111.042,330.813 107.5,330.5C 107.984,375.227 107.484,419.894 106,464.5C 104.363,466.81 102.196,468.31 99.5,469C 79.8362,469.5 60.1695,469.667 40.5,469.5C 40.5,473.833 40.5,478.167 40.5,482.5C 39.5054,471.679 39.1721,460.679 39.5,449.5C 52.8375,449.667 66.1708,449.5 79.5,449C 82.196,448.31 84.3626,446.81 86,444.5C 87.4818,406.228 87.9818,367.895 87.5,329.5 Z"/></g>
<g><path style="opacity:1" fill="#2266d3" d="M 117.5,329.5 C 121.557,330.051 124.724,332.051 127,335.5C 127.5,343.493 127.666,351.493 127.5,359.5C 127.5,387.833 127.5,416.167 127.5,444.5C 127.5,449.5 127.5,454.5 127.5,459.5C 127.666,467.507 127.5,475.507 127,483.5C 125.833,486 124,487.833 121.5,489C 96.5,489.667 71.5,489.667 46.5,489C 42.9106,488.246 40.9106,486.079 40.5,482.5C 40.5,478.167 40.5,473.833 40.5,469.5C 60.1695,469.667 79.8362,469.5 99.5,469C 102.196,468.31 104.363,466.81 106,464.5C 107.484,419.894 107.984,375.227 107.5,330.5C 111.042,330.813 114.375,330.479 117.5,329.5 Z"/></g>
<g><path style="opacity:1" fill="#5d9bf7" d="M 49.5,355.5 C 52.0444,355.104 54.2111,355.771 56,357.5C 56.6667,384.5 56.6667,411.5 56,438.5C 53.9658,441.859 51.6324,442.192 49,439.5C 48.176,411.428 48.3426,383.428 49.5,355.5 Z"/></g>
</svg>
