<?xml version="1.0" encoding="UTF-8"?>
<!DOCTYPE svg PUBLIC "-//W3C//DTD SVG 1.1//EN" "http://www.w3.org/Graphics/SVG/1.1/DTD/svg11.dtd">
<svg xmlns="http://www.w3.org/2000/svg" version="1.1" width="512px" height="512px" style="shape-rendering:geometricPrecision; text-rendering:geometricPrecision; image-rendering:optimizeQuality; fill-rule:evenodd; clip-rule:evenodd" xmlns:xlink="http://www.w3.org/1999/xlink">
<g><path style="opacity:0.967" fill="#060708" d="M 49.5,446.5 C 34.4432,439.11 23.4432,427.776 16.5,412.5C 14.2286,407.084 12.7286,401.417 12,395.5C 11.3333,282.5 11.3333,169.5 12,56.5C 16.1667,31 31,16.1667 56.5,12C 149.833,11.3333 243.167,11.3333 336.5,12C 356.669,15.834 369.502,27.6673 375,47.5C 375.5,96.1655 375.667,144.832 375.5,193.5C 410.168,193.333 444.835,193.5 479.5,194C 490.183,197.351 496.683,204.517 499,215.5C 499.167,259.167 499.333,302.833 499.5,346.5C 499.657,391.545 499.157,436.545 498,481.5C 494.224,491.475 487.057,497.308 476.5,499C 409.5,499.667 342.5,499.667 275.5,499C 265.703,497.205 258.87,491.705 255,482.5C 253.601,472.232 253.101,461.898 253.5,451.5C 190.499,451.667 127.499,451.5 64.5,451C 59.2292,450.267 54.2292,448.767 49.5,446.5 Z"/></g>
<g><path style="opacity:1" fill="#646c77" d="M 55.5,19.5 C 70.1667,19.5 84.8333,19.5 99.5,19.5C 99.5,39.5 99.5,59.5 99.5,79.5C 84.8295,79.3334 70.1629,79.5001 55.5,80C 40.4997,82.5793 28.6663,90.0793 20,102.5C 19.3333,86.5 19.3333,70.5 20,54.5C 25.1148,35.8843 36.9481,24.2177 55.5,19.5 Z"/></g>
<g><path style="opacity:1" fill="#f56b81" d="M 107.5,19.5 C 183.834,19.3333 260.167,19.5 336.5,20C 354.079,23.9128 364.579,34.7461 368,52.5C 368.5,99.4988 368.667,146.499 368.5,193.5C 336.832,193.333 305.165,193.5 273.5,194C 271.377,194.815 269.377,195.815 267.5,197C 232.167,197.333 196.833,197.667 161.5,198C 158.866,200.293 158.866,202.46 161.5,204.5C 193.5,205.167 225.5,205.833 257.5,206.5C 256.073,209.024 254.906,211.69 254,214.5C 253.5,220.825 253.334,227.158 253.5,233.5C 231.164,233.333 208.831,233.5 186.5,234C 185.065,236.267 185.398,238.267 187.5,240C 209.497,240.5 231.497,240.667 253.5,240.5C 253.5,266.5 253.5,292.5 253.5,318.5C 204.833,318.5 156.167,318.5 107.5,318.5C 107.5,218.833 107.5,119.167 107.5,19.5 Z"/></g>
<g><path style="opacity:1" fill="#0f0906" d="M 153.5,57.5 C 207.501,57.3333 261.501,57.5 315.5,58C 323,60.1667 327.833,65 330,72.5C 330.941,89.2202 330.607,105.887 329,122.5C 326.438,128.061 322.272,131.894 316.5,134C 260.775,134.987 205.109,134.654 149.5,133C 143.673,129.842 140.173,125.008 139,118.5C 138.333,103.167 138.333,87.8333 139,72.5C 141.351,64.9841 146.184,59.9841 153.5,57.5 Z"/></g>
<g><path style="opacity:1" fill="#fccc56" d="M 316.5,66.5 C 317.5,68.1667 318.833,69.5 320.5,70.5C 321.222,70.9175 321.722,71.5842 322,72.5C 322.5,87.1629 322.667,101.83 322.5,116.5C 320.628,117.511 318.628,118.345 316.5,119C 261.5,119.667 206.5,119.667 151.5,119C 149.677,118.003 148.01,116.836 146.5,115.5C 146.333,101.163 146.5,86.8295 147,72.5C 148.5,69.6667 150.667,67.5 153.5,66C 207.874,65.1753 262.208,65.342 316.5,66.5 Z"/></g>
<g><path style="opacity:1" fill="#9e4c50" d="M 316.5,66.5 C 318.833,66.8333 320.167,68.1667 320.5,70.5C 318.833,69.5 317.5,68.1667 316.5,66.5 Z"/></g>
<g><path style="opacity:1" fill="#f3f5f7" d="M 99.5,129.5 C 81.4969,129.333 63.4969,129.5 45.5,130C 35.0074,133.155 26.8407,139.322 21,148.5C 20.5002,139.84 20.3336,131.173 20.5,122.5C 24.0182,104.478 34.6849,92.9781 52.5,88C 68.1631,87.5001 83.8298,87.3334 99.5,87.5C 99.5,101.5 99.5,115.5 99.5,129.5 Z"/></g>
<g><path style="opacity:1" fill="#d9b049" d="M 146.5,115.5 C 148.01,116.836 149.677,118.003 151.5,119C 206.5,119.667 261.5,119.667 316.5,119C 318.628,118.345 320.628,117.511 322.5,116.5C 322.335,121.84 319.668,125.34 314.5,127C 261.167,127.667 207.833,127.667 154.5,127C 149.223,124.936 146.556,121.103 146.5,115.5 Z"/></g>
<g><path style="opacity:1" fill="#d4d7db" d="M 20.5,122.5 C 20.3336,131.173 20.5002,139.84 21,148.5C 26.8407,139.322 35.0074,133.155 45.5,130C 63.4969,129.5 81.4969,129.333 99.5,129.5C 99.5,131.833 99.5,134.167 99.5,136.5C 81.4969,136.333 63.4969,136.5 45.5,137C 35.1535,139.593 26.6535,145.093 20,153.5C 19.1748,142.992 19.3415,132.658 20.5,122.5 Z"/></g>
<g><path style="opacity:1" fill="#646c77" d="M 49.5,143.5 C 66.1667,143.5 82.8333,143.5 99.5,143.5C 99.5,169.833 99.5,196.167 99.5,222.5C 84.4963,222.333 69.4963,222.5 54.5,223C 39.9568,225.854 28.4568,233.354 20,245.5C 19.0367,219.451 19.3701,193.451 21,167.5C 26.3669,154.425 35.8669,146.425 49.5,143.5 Z"/></g>
<g><path style="opacity:1" fill="#000000" d="M 147.5,162.5 C 207.834,162.333 268.168,162.5 328.5,163C 331.167,165 331.167,167 328.5,169C 267.831,169.833 207.164,169.667 146.5,168.5C 145.15,166.217 145.483,164.217 147.5,162.5 Z"/></g>
<g><path style="opacity:1" fill="#636b76" d="M 273.5,201.5 C 341.834,201.333 410.167,201.5 478.5,202C 485.097,204.263 489.264,208.763 491,215.5C 491.667,302.5 491.667,389.5 491,476.5C 488.723,484.444 483.556,489.278 475.5,491C 408.833,491.667 342.167,491.667 275.5,491C 268.225,488.725 263.725,483.892 262,476.5C 261.333,389.167 261.333,301.833 262,214.5C 264.273,208.73 268.106,204.397 273.5,201.5 Z"/></g>
<g><path style="opacity:1" fill="#421d23" d="M 161.5,204.5 C 193.84,204.167 226.174,204.5 258.5,205.5C 258.376,206.107 258.043,206.44 257.5,206.5C 225.5,205.833 193.5,205.167 161.5,204.5 Z"/></g>
<g><path style="opacity:1" fill="#05060a" d="M 291.5,218.5 C 348.834,218.333 406.168,218.5 463.5,219C 468,220.833 471.167,224 473,228.5C 473.667,247.167 473.667,265.833 473,284.5C 471.141,289.026 467.974,292.192 463.5,294C 405.833,294.667 348.167,294.667 290.5,294C 285.938,292.373 283.105,289.206 282,284.5C 281.333,265.833 281.333,247.167 282,228.5C 284.022,223.98 287.189,220.647 291.5,218.5 Z"/></g>
<g><path style="opacity:1" fill="#8b9ef9" d="M 465.5,279.5 C 464.527,279.987 463.527,280.487 462.5,281C 405.833,281.667 349.167,281.667 292.5,281C 290.125,278.593 289.125,279.093 289.5,282.5C 288.338,265.338 288.171,248.005 289,230.5C 289.465,229.069 290.299,227.903 291.5,227C 348.5,226.333 405.5,226.333 462.5,227C 463.667,227.5 464.5,228.333 465,229.5C 465.5,246.163 465.667,262.83 465.5,279.5 Z"/></g>
<g><path style="opacity:1" fill="#f3f5f7" d="M 99.5,272.5 C 81.4969,272.333 63.4969,272.5 45.5,273C 35.0074,276.155 26.8407,282.322 21,291.5C 20.5003,283.173 20.3336,274.84 20.5,266.5C 23.5591,247.935 34.2258,236.102 52.5,231C 68.1631,230.5 83.8298,230.333 99.5,230.5C 99.5,244.5 99.5,258.5 99.5,272.5 Z"/></g>
<g><path style="opacity:1" fill="#d3d5da" d="M 20.5,266.5 C 20.3336,274.84 20.5003,283.173 21,291.5C 26.8407,282.322 35.0074,276.155 45.5,273C 63.4969,272.5 81.4969,272.333 99.5,272.5C 99.5,274.833 99.5,277.167 99.5,279.5C 81.4969,279.333 63.4969,279.5 45.5,280C 35.1535,282.593 26.6535,288.093 20,296.5C 19.1751,286.325 19.3417,276.325 20.5,266.5 Z"/></g>
<g><path style="opacity:1" fill="#6878e1" d="M 465.5,279.5 C 466.275,283.182 464.941,285.682 461.5,287C 405.167,287.667 348.833,287.667 292.5,287C 290.859,285.871 289.859,284.371 289.5,282.5C 289.125,279.093 290.125,278.593 292.5,281C 349.167,281.667 405.833,281.667 462.5,281C 463.527,280.487 464.527,279.987 465.5,279.5 Z"/></g>
<g><path style="opacity:1" fill="#636b76" d="M 99.5,319.5 C 87.1622,319.333 74.8288,319.5 62.5,320C 43.4128,324.631 29.5795,335.797 21,353.5C 20.5001,340.504 20.3334,327.504 20.5,314.5C 24.0055,299.495 33.3388,290.329 48.5,287C 65.4967,286.5 82.4967,286.333 99.5,286.5C 99.5,297.5 99.5,308.5 99.5,319.5 Z"/></g>
<g><path style="opacity:1" fill="#0a0a0a" d="M 282.5,308.5 C 291.839,308.334 301.173,308.5 310.5,309C 313.196,309.69 315.363,311.19 317,313.5C 318.617,323.734 318.95,334.067 318,344.5C 316.86,348.307 314.36,350.807 310.5,352C 301.167,352.667 291.833,352.667 282.5,352C 278.942,350.108 276.442,347.275 275,343.5C 274.333,334.5 274.333,325.5 275,316.5C 277.028,313.308 279.528,310.641 282.5,308.5 Z"/></g>
<g><path style="opacity:1" fill="#0b0c0d" d="M 335.5,308.5 C 344.839,308.334 354.173,308.5 363.5,309C 366.196,309.69 368.363,311.19 370,313.5C 371.617,323.734 371.95,334.067 371,344.5C 369.86,348.307 367.36,350.807 363.5,352C 354.167,352.667 344.833,352.667 335.5,352C 331.942,350.108 329.442,347.275 328,343.5C 327.333,334.5 327.333,325.5 328,316.5C 329.69,312.979 332.19,310.312 335.5,308.5 Z"/></g>
<g><path style="opacity:1" fill="#0c0809" d="M 388.5,308.5 C 397.839,308.334 407.173,308.5 416.5,309C 419.196,309.69 421.363,311.19 423,313.5C 424.617,323.734 424.95,334.067 424,344.5C 422.86,348.307 420.36,350.807 416.5,352C 407.167,352.667 397.833,352.667 388.5,352C 384.942,350.108 382.442,347.275 381,343.5C 380.333,334.5 380.333,325.5 381,316.5C 382.69,312.979 385.19,310.312 388.5,308.5 Z"/></g>
<g><path style="opacity:1" fill="#08090d" d="M 441.5,308.5 C 450.839,308.334 460.173,308.5 469.5,309C 472.196,309.69 474.363,311.19 476,313.5C 477.617,323.734 477.95,334.067 477,344.5C 475.755,348.742 472.922,351.242 468.5,352C 459.5,352.667 450.5,352.667 441.5,352C 437.942,350.108 435.442,347.275 434,343.5C 433.333,334.5 433.333,325.5 434,316.5C 435.69,312.979 438.19,310.312 441.5,308.5 Z"/></g>
<g><path style="opacity:1" fill="#edc5a2" d="M 283.5,316.5 C 292.506,316.334 301.506,316.5 310.5,317C 311.649,325.421 311.816,333.921 311,342.5C 310.5,343 310,343.5 309.5,344C 300.814,344.832 292.147,344.665 283.5,343.5C 282.169,334.47 282.169,325.47 283.5,316.5 Z"/></g>
<g><path style="opacity:1" fill="#fdfdfd" d="M 336.5,316.5 C 345.525,316.168 354.525,316.502 363.5,317.5C 364.636,325.785 364.803,334.118 364,342.5C 363.5,343 363,343.5 362.5,344C 353.814,344.832 345.147,344.665 336.5,343.5C 335.169,334.47 335.169,325.47 336.5,316.5 Z"/></g>
<g><path style="opacity:1" fill="#f46a80" d="M 389.5,316.5 C 398.173,316.334 406.84,316.5 415.5,317C 416,317.5 416.5,318 417,318.5C 417.667,326.5 417.667,334.5 417,342.5C 416.5,343 416,343.5 415.5,344C 406.833,344.667 398.167,344.667 389.5,344C 388.179,334.833 388.179,325.667 389.5,316.5 Z"/></g>
<g><path style="opacity:1" fill="#8a9df7" d="M 442.5,316.5 C 451.173,316.334 459.84,316.5 468.5,317C 469,317.5 469.5,318 470,318.5C 470.667,326.5 470.667,334.5 470,342.5C 469.5,343 469,343.5 468.5,344C 459.833,344.667 451.167,344.667 442.5,344C 441.179,334.833 441.179,325.667 442.5,316.5 Z"/></g>
<g><path style="opacity:1" fill="#515962" d="M 20.5,314.5 C 20.3334,327.504 20.5001,340.504 21,353.5C 29.5795,335.797 43.4128,324.631 62.5,320C 74.8288,319.5 87.1622,319.333 99.5,319.5C 99.5,321.833 99.5,324.167 99.5,326.5C 87.1622,326.333 74.8288,326.5 62.5,327C 43.4876,331.077 29.3209,341.577 20,358.5C 19.1724,343.661 19.3391,328.994 20.5,314.5 Z"/></g>
<g><path style="opacity:1" fill="#6c2b33" d="M 107.5,19.5 C 107.5,119.167 107.5,218.833 107.5,318.5C 107.5,320.833 107.5,323.167 107.5,325.5C 156.167,325.5 204.833,325.5 253.5,325.5C 253.5,323.167 253.5,320.833 253.5,318.5C 253.5,292.5 253.5,266.5 253.5,240.5C 254.498,268.995 254.831,297.662 254.5,326.5C 205.167,326.5 155.833,326.5 106.5,326.5C 106.167,223.999 106.501,121.665 107.5,19.5 Z"/></g>
<g><path style="opacity:1" fill="#eb5564" d="M 107.5,318.5 C 156.167,318.5 204.833,318.5 253.5,318.5C 253.5,320.833 253.5,323.167 253.5,325.5C 204.833,325.5 156.167,325.5 107.5,325.5C 107.5,323.167 107.5,320.833 107.5,318.5 Z"/></g>
<g><path style="opacity:1" fill="#f3f5f7" d="M 253.5,432.5 C 190.499,432.667 127.499,432.5 64.5,432C 44.7131,427.359 30.0465,416.192 20.5,398.5C 17.4782,368.032 30.1448,347.198 58.5,336C 61.7895,335.118 65.1228,334.452 68.5,334C 130.166,333.5 191.832,333.333 253.5,333.5C 253.5,340.5 253.5,347.5 253.5,354.5C 192.499,354.333 131.499,354.5 70.5,355C 52.055,358.609 42.3883,369.776 41.5,388.5C 42.051,405.892 50.7176,417.059 67.5,422C 129.499,422.5 191.499,422.667 253.5,422.5C 253.5,425.833 253.5,429.167 253.5,432.5 Z"/></g>
<g><path style="opacity:1" fill="#fefefe" d="M 67.5,362.5 C 129.5,362.5 191.5,362.5 253.5,362.5C 253.5,369.833 253.5,377.167 253.5,384.5C 204.499,384.333 155.499,384.5 106.5,385C 103.162,386.988 102.828,389.321 105.5,392C 154.832,392.5 204.166,392.667 253.5,392.5C 253.5,399.833 253.5,407.167 253.5,414.5C 191.499,414.667 129.499,414.5 67.5,414C 48.9713,405.414 44.138,391.914 53,373.5C 56.9153,368.477 61.7487,364.81 67.5,362.5 Z"/></g>
<g><path style="opacity:1" fill="#040607" d="M 281.5,369.5 C 291.506,369.334 301.506,369.5 311.5,370C 313.96,371.458 316.127,373.291 318,375.5C 318.667,385.5 318.667,395.5 318,405.5C 316.514,409.498 313.68,411.998 309.5,413C 300.833,413.667 292.167,413.667 283.5,413C 279.333,411.5 276.5,408.667 275,404.5C 274.333,395.5 274.333,386.5 275,377.5C 276.305,374.039 278.471,371.372 281.5,369.5 Z"/></g>
<g><path style="opacity:1" fill="#040607" d="M 334.5,369.5 C 344.506,369.334 354.506,369.5 364.5,370C 366.624,371.122 368.457,372.622 370,374.5C 371.617,384.734 371.95,395.067 371,405.5C 369.514,409.498 366.68,411.998 362.5,413C 353.833,413.667 345.167,413.667 336.5,413C 332.333,411.5 329.5,408.667 328,404.5C 327.333,395.5 327.333,386.5 328,377.5C 329.305,374.039 331.471,371.372 334.5,369.5 Z"/></g>
<g><path style="opacity:1" fill="#050608" d="M 387.5,369.5 C 397.506,369.334 407.506,369.5 417.5,370C 419.624,371.122 421.457,372.622 423,374.5C 424.617,384.734 424.95,395.067 424,405.5C 422.514,409.498 419.68,411.998 415.5,413C 406.833,413.667 398.167,413.667 389.5,413C 385.333,411.5 382.5,408.667 381,404.5C 380.333,395.5 380.333,386.5 381,377.5C 382.305,374.039 384.471,371.372 387.5,369.5 Z"/></g>
<g><path style="opacity:1" fill="#040607" d="M 440.5,369.5 C 450.506,369.334 460.506,369.5 470.5,370C 473.333,371.5 475.5,373.667 477,376.5C 477.667,406.167 477.667,435.833 477,465.5C 475.833,469.333 473.333,471.833 469.5,473C 460.167,473.667 450.833,473.667 441.5,473C 437.502,471.514 435.002,468.68 434,464.5C 433.333,435.5 433.333,406.5 434,377.5C 435.305,374.039 437.471,371.372 440.5,369.5 Z"/></g>
<g><path style="opacity:1" fill="#fbfbfb" d="M 284.5,376.5 C 292.84,376.334 301.173,376.5 309.5,377C 310,377.5 310.5,378 311,378.5C 311.667,386.833 311.667,395.167 311,403.5C 310.5,404 310,404.5 309.5,405C 301.167,405.667 292.833,405.667 284.5,405C 284,404.5 283.5,404 283,403.5C 282.333,395.167 282.333,386.833 283,378.5C 283.717,377.956 284.217,377.289 284.5,376.5 Z"/></g>
<g><path style="opacity:1" fill="#fbfbfb" d="M 337.5,376.5 C 345.84,376.334 354.173,376.5 362.5,377C 363,377.5 363.5,378 364,378.5C 364.667,386.833 364.667,395.167 364,403.5C 363.5,404 363,404.5 362.5,405C 354.167,405.667 345.833,405.667 337.5,405C 337,404.5 336.5,404 336,403.5C 335.333,395.167 335.333,386.833 336,378.5C 336.717,377.956 337.217,377.289 337.5,376.5 Z"/></g>
<g><path style="opacity:1" fill="#fafafa" d="M 390.5,376.5 C 398.84,376.334 407.173,376.5 415.5,377C 416,377.5 416.5,378 417,378.5C 417.667,386.833 417.667,395.167 417,403.5C 416.5,404 416,404.5 415.5,405C 407.167,405.667 398.833,405.667 390.5,405C 390,404.5 389.5,404 389,403.5C 388.333,395.167 388.333,386.833 389,378.5C 389.717,377.956 390.217,377.289 390.5,376.5 Z"/></g>
<g><path style="opacity:1" fill="#fbfbfb" d="M 443.5,376.5 C 451.84,376.334 460.173,376.5 468.5,377C 469,377.5 469.5,378 470,378.5C 470.667,406.833 470.667,435.167 470,463.5C 469.5,464.667 468.667,465.5 467.5,466C 459.5,466.667 451.5,466.667 443.5,466C 443,465.5 442.5,465 442,464.5C 441.333,435.833 441.333,407.167 442,378.5C 442.717,377.956 443.217,377.289 443.5,376.5 Z"/></g>
<g><path style="opacity:1" fill="#d6d9de" d="M 20.5,398.5 C 30.0465,416.192 44.7131,427.359 64.5,432C 127.499,432.5 190.499,432.667 253.5,432.5C 253.5,436.167 253.5,439.833 253.5,443.5C 190.832,443.667 128.166,443.5 65.5,443C 41.3653,437.365 26.3653,422.532 20.5,398.5 Z"/></g>
<g><path style="opacity:0.793" fill="#e5e7e9" d="M 16.5,412.5 C 23.4432,427.776 34.4432,439.11 49.5,446.5C 31.7587,441.758 20.7587,430.425 16.5,412.5 Z"/></g>
<g><path style="opacity:1" fill="#040607" d="M 283.5,429.5 C 292.506,429.334 301.506,429.5 310.5,430C 313.102,430.883 315.269,432.383 317,434.5C 318.619,445.068 318.952,455.735 318,466.5C 316.878,468.624 315.378,470.457 313.5,472C 303.241,473.592 292.907,473.926 282.5,473C 279.829,471.75 277.663,469.917 276,467.5C 274.413,457.908 274.08,448.242 275,438.5C 276.688,434.315 279.521,431.315 283.5,429.5 Z"/></g>
<g><path style="opacity:1" fill="#050607" d="M 336.5,429.5 C 345.506,429.334 354.506,429.5 363.5,430C 366.102,430.883 368.269,432.383 370,434.5C 371.619,445.068 371.952,455.735 371,466.5C 369.878,468.624 368.378,470.457 366.5,472C 356.241,473.592 345.907,473.926 335.5,473C 331.502,471.514 329.002,468.68 328,464.5C 327.333,455.833 327.333,447.167 328,438.5C 329.714,434.29 332.547,431.29 336.5,429.5 Z"/></g>
<g><path style="opacity:1" fill="#050708" d="M 389.5,429.5 C 398.506,429.334 407.506,429.5 416.5,430C 419.102,430.883 421.269,432.383 423,434.5C 424.619,445.068 424.952,455.735 424,466.5C 422.878,468.624 421.378,470.457 419.5,472C 409.241,473.592 398.907,473.926 388.5,473C 384.502,471.514 382.002,468.68 381,464.5C 380.333,455.833 380.333,447.167 381,438.5C 382.714,434.29 385.547,431.29 389.5,429.5 Z"/></g>
<g><path style="opacity:1" fill="#fafafa" d="M 284.5,437.5 C 292.84,437.334 301.173,437.5 309.5,438C 310,438.5 310.5,439 311,439.5C 311.667,447.833 311.667,456.167 311,464.5C 310.5,465 310,465.5 309.5,466C 301.167,466.667 292.833,466.667 284.5,466C 284,465.5 283.5,465 283,464.5C 282.333,456.167 282.333,447.833 283,439.5C 283.717,438.956 284.217,438.289 284.5,437.5 Z"/></g>
<g><path style="opacity:1" fill="#fafafa" d="M 337.5,437.5 C 345.84,437.334 354.173,437.5 362.5,438C 363,438.5 363.5,439 364,439.5C 364.667,447.833 364.667,456.167 364,464.5C 363.5,465 363,465.5 362.5,466C 354.167,466.667 345.833,466.667 337.5,466C 337,465.5 336.5,465 336,464.5C 335.333,456.167 335.333,447.833 336,439.5C 336.717,438.956 337.217,438.289 337.5,437.5 Z"/></g>
<g><path style="opacity:1" fill="#f9f9f9" d="M 390.5,437.5 C 398.84,437.334 407.173,437.5 415.5,438C 416,438.5 416.5,439 417,439.5C 417.667,447.833 417.667,456.167 417,464.5C 416.5,465 416,465.5 415.5,466C 407.167,466.667 398.833,466.667 390.5,466C 390,465.5 389.5,465 389,464.5C 388.333,456.167 388.333,447.833 389,439.5C 389.717,438.956 390.217,438.289 390.5,437.5 Z"/></g>
</svg>
