<?xml version="1.0" encoding="UTF-8"?>
<!DOCTYPE svg PUBLIC "-//W3C//DTD SVG 1.1//EN" "http://www.w3.org/Graphics/SVG/1.1/DTD/svg11.dtd">
<svg xmlns="http://www.w3.org/2000/svg" version="1.1" width="512px" height="512px" style="shape-rendering:geometricPrecision; text-rendering:geometricPrecision; image-rendering:optimizeQuality; fill-rule:evenodd; clip-rule:evenodd" xmlns:xlink="http://www.w3.org/1999/xlink">
<g><path style="opacity:0.953" fill="#29b933" d="M 121.5,61.5 C 124.33,59.6377 125.163,56.9711 124,53.5C 112.634,40.6379 101.134,27.9713 89.5,15.5C 91.8185,10.8938 95.4852,9.3938 100.5,11C 112.667,24.5 124.833,38 137,51.5C 139.157,54.8649 138.991,58.0316 136.5,61C 131.511,61.4993 126.511,61.6659 121.5,61.5 Z"/></g>
<g><path style="opacity:0.947" fill="#2a93fc" d="M 439.5,61.5 C 442.712,58.9787 443.212,55.9787 441,52.5C 431.963,43.1314 423.296,33.4648 415,23.5C 412.564,20.5532 409.731,18.2199 406.5,16.5C 408.002,14.825 409.335,12.9917 410.5,11C 412.833,10.3333 415.167,10.3333 417.5,11C 430.333,25.1667 443.167,39.3333 456,53.5C 457.036,56.6799 456.203,59.1799 453.5,61C 448.845,61.4992 444.179,61.6658 439.5,61.5 Z"/></g>
<g><path style="opacity:1" fill="#2cd52d" d="M 89.5,15.5 C 101.134,27.9713 112.634,40.6379 124,53.5C 125.163,56.9711 124.33,59.6377 121.5,61.5C 120.5,61.5 119.5,61.5 118.5,61.5C 113.833,61.5 109.167,61.5 104.5,61.5C 104.667,93.1684 104.5,124.835 104,156.5C 102.27,158.402 100.437,160.069 98.5,161.5C 92.1579,161.666 85.8246,161.5 79.5,161C 76.732,159.238 75.232,156.738 75,153.5C 74.5,122.835 74.3334,92.1685 74.5,61.5C 68.8236,61.6661 63.1569,61.4994 57.5,61C 54.7972,59.1799 53.9639,56.6799 55,53.5C 66.3658,40.6379 77.8658,27.9713 89.5,15.5 Z"/></g>
<g><path style="opacity:1" fill="#4db0fb" d="M 406.5,16.5 C 409.731,18.2199 412.564,20.5532 415,23.5C 423.296,33.4648 431.963,43.1314 441,52.5C 443.212,55.9787 442.712,58.9787 439.5,61.5C 438.5,61.5 437.5,61.5 436.5,61.5C 431.833,61.5 427.167,61.5 422.5,61.5C 422.667,92.8351 422.5,124.168 422,155.5C 420.564,158.442 418.397,160.442 415.5,161.5C 409.491,161.666 403.491,161.499 397.5,161C 395.333,160.167 393.833,158.667 393,156.5C 392.5,124.835 392.333,93.1684 392.5,61.5C 386.491,61.6662 380.491,61.4995 374.5,61C 372.556,58.8471 372.056,56.3471 373,53.5C 384.032,40.9714 395.199,28.6381 406.5,16.5 Z"/></g>
<g><path style="opacity:0.976" fill="#009914" d="M 344.5,249.5 C 343.503,269.993 343.169,290.66 343.5,311.5C 335.167,311.5 326.833,311.5 318.5,311.5C 318.5,234.833 318.5,158.167 318.5,81.5C 284.5,81.5 250.5,81.5 216.5,81.5C 216.5,73.1667 216.5,64.8333 216.5,56.5C 259.167,56.5 301.833,56.5 344.5,56.5C 344.5,120.833 344.5,185.167 344.5,249.5 Z"/></g>
<g><path style="opacity:0.963" fill="#29b933" d="M 118.5,61.5 C 118.667,93.1684 118.5,124.835 118,156.5C 117.167,158.667 115.667,160.167 113.5,161C 108.511,161.499 103.511,161.666 98.5,161.5C 100.437,160.069 102.27,158.402 104,156.5C 104.5,124.835 104.667,93.1684 104.5,61.5C 109.167,61.5 113.833,61.5 118.5,61.5 Z"/></g>
<g><path style="opacity:0.933" fill="#2a93fc" d="M 436.5,61.5 C 436.667,92.1685 436.5,122.835 436,153.5C 435.768,156.738 434.268,159.238 431.5,161C 426.177,161.499 420.844,161.666 415.5,161.5C 418.397,160.442 420.564,158.442 422,155.5C 422.5,124.168 422.667,92.8351 422.5,61.5C 427.167,61.5 431.833,61.5 436.5,61.5 Z"/></g>
<g><path style="opacity:0.996" fill="#28b832" d="M 216.5,81.5 C 250.5,81.5 284.5,81.5 318.5,81.5C 318.5,158.167 318.5,234.833 318.5,311.5C 318.5,312.167 318.5,312.833 318.5,313.5C 310.5,313.5 302.5,313.5 294.5,313.5C 294.5,244.5 294.5,175.5 294.5,106.5C 260.5,106.5 226.5,106.5 192.5,106.5C 192.167,106.5 191.833,106.5 191.5,106.5C 191.5,98.1667 191.5,89.8333 191.5,81.5C 199.833,81.5 208.167,81.5 216.5,81.5 Z"/></g>
<g><path style="opacity:0.99" fill="#2ed52d" d="M 191.5,106.5 C 191.833,106.5 192.167,106.5 192.5,106.5C 225.996,107.498 259.663,107.832 293.5,107.5C 293.5,176.167 293.5,244.833 293.5,313.5C 287.833,313.5 282.167,313.5 276.5,313.5C 276.5,255.833 276.5,198.167 276.5,140.5C 266.855,139.522 261.522,134.189 260.5,124.5C 240.5,124.5 220.5,124.5 200.5,124.5C 198.833,124.5 197.167,124.5 195.5,124.5C 194.165,132.817 189.165,136.817 180.5,136.5C 180.5,195.5 180.5,254.5 180.5,313.5C 175.833,313.5 171.167,313.5 166.5,313.5C 166.5,297.833 166.5,282.167 166.5,266.5C 166.5,260.833 166.5,255.167 166.5,249.5C 166.5,201.833 166.5,154.167 166.5,106.5C 174.833,106.5 183.167,106.5 191.5,106.5 Z"/></g>
<g><path style="opacity:1" fill="#2ac72f" d="M 192.5,106.5 C 226.5,106.5 260.5,106.5 294.5,106.5C 294.5,175.5 294.5,244.5 294.5,313.5C 294.167,313.5 293.833,313.5 293.5,313.5C 293.5,244.833 293.5,176.167 293.5,107.5C 259.663,107.832 225.996,107.498 192.5,106.5 Z"/></g>
<g><path style="opacity:1" fill="#29b933" d="M 200.5,124.5 C 199.505,134.161 194.172,139.495 184.5,140.5C 184.5,198.167 184.5,255.833 184.5,313.5C 183.167,313.5 181.833,313.5 180.5,313.5C 180.5,254.5 180.5,195.5 180.5,136.5C 189.165,136.817 194.165,132.817 195.5,124.5C 197.167,124.5 198.833,124.5 200.5,124.5 Z"/></g>
<g><path style="opacity:1" fill="#95fe95" d="M 200.5,124.5 C 220.5,124.5 240.5,124.5 260.5,124.5C 261.522,134.189 266.855,139.522 276.5,140.5C 276.5,198.167 276.5,255.833 276.5,313.5C 263.167,313.5 249.833,313.5 236.5,313.5C 236.666,307.824 236.499,302.157 236,296.5C 232.333,292.5 228.667,292.5 225,296.5C 224.501,302.157 224.334,307.824 224.5,313.5C 211.167,313.5 197.833,313.5 184.5,313.5C 184.5,255.833 184.5,198.167 184.5,140.5C 194.172,139.495 199.505,134.161 200.5,124.5 Z"/></g>
<g><path style="opacity:1" fill="#039a16" d="M 228.5,148.5 C 231.961,148.146 234.461,149.479 236,152.5C 236.667,161.167 236.667,169.833 236,178.5C 232.333,182.5 228.667,182.5 225,178.5C 224.333,169.833 224.333,161.167 225,152.5C 225.69,150.65 226.856,149.316 228.5,148.5 Z"/></g>
<g><path style="opacity:1" fill="#049a16" d="M 227.5,197.5 C 233.943,196.94 237.277,199.94 237.5,206.5C 243.739,208.201 248.906,211.534 253,216.5C 256.748,224.722 254.248,228.555 245.5,228C 244.057,224.056 241.391,221.223 237.5,219.5C 236.167,224.167 236.167,228.833 237.5,233.5C 243.739,235.201 248.906,238.534 253,243.5C 257.028,257.432 251.862,265.765 237.5,268.5C 237.289,275.222 233.955,278.055 227.5,277C 225.184,274.695 223.85,271.862 223.5,268.5C 214.306,266.471 208.64,260.971 206.5,252C 206.894,246.937 209.561,244.937 214.5,246C 216.777,247.613 218.277,249.78 219,252.5C 220.242,253.872 221.742,254.872 223.5,255.5C 224.492,251.217 224.826,246.884 224.5,242.5C 207.995,238.167 203.495,228.5 211,213.5C 214.633,210.266 218.799,207.932 223.5,206.5C 223.898,202.996 225.231,199.996 227.5,197.5 Z"/></g>
<g><path style="opacity:1" fill="#8df88d" d="M 222.5,219.5 C 223.777,220.694 224.444,222.36 224.5,224.5C 223.593,230.49 221.593,230.49 218.5,224.5C 219.16,222.185 220.493,220.519 222.5,219.5 Z"/></g>
<g><path style="opacity:1" fill="#92fc92" d="M 236.5,246.5 C 242.293,247.421 243.626,250.255 240.5,255C 239.234,255.309 238.067,255.809 237,256.5C 236.502,253.183 236.335,249.85 236.5,246.5 Z"/></g>
<g><path style="opacity:0.991" fill="#ab733a" d="M 166.5,249.5 C 166.5,255.167 166.5,260.833 166.5,266.5C 155.495,266.333 144.495,266.5 133.5,267C 114.365,273.754 106.365,287.254 109.5,307.5C 105.88,305.715 103.047,303.048 101,299.5C 98.11,293.98 95.9433,288.314 94.5,282.5C 95.276,265.754 103.609,254.921 119.5,250C 135.163,249.5 150.83,249.333 166.5,249.5 Z"/></g>
<g><path style="opacity:0.981" fill="#a87439" d="M 344.5,249.5 C 355.505,249.333 366.505,249.5 377.5,250C 382.891,253.654 385.224,258.821 384.5,265.5C 371.246,266.481 357.913,266.814 344.5,266.5C 344.829,281.676 344.496,296.676 343.5,311.5C 343.169,290.66 343.503,269.993 344.5,249.5 Z"/></g>
<g><path style="opacity:1" fill="#b97f46" d="M 166.5,266.5 C 166.5,282.167 166.5,297.833 166.5,313.5C 151.163,313.667 135.83,313.5 120.5,313C 116.213,312.19 112.546,310.357 109.5,307.5C 106.365,287.254 114.365,273.754 133.5,267C 144.495,266.5 155.495,266.333 166.5,266.5 Z"/></g>
<g><path style="opacity:1" fill="#b97f46" d="M 384.5,265.5 C 384.5,281.5 384.5,297.5 384.5,313.5C 362.833,313.5 341.167,313.5 319.5,313.5C 327.5,312.833 335.5,312.167 343.5,311.5C 344.496,296.676 344.829,281.676 344.5,266.5C 357.913,266.814 371.246,266.481 384.5,265.5 Z"/></g>
<g><path style="opacity:1" fill="#e5b07b" d="M 94.5,282.5 C 95.9433,288.314 98.11,293.98 101,299.5C 103.047,303.048 105.88,305.715 109.5,307.5C 112.546,310.357 116.213,312.19 120.5,313C 135.83,313.5 151.163,313.667 166.5,313.5C 171.167,313.5 175.833,313.5 180.5,313.5C 181.833,313.5 183.167,313.5 184.5,313.5C 197.833,313.5 211.167,313.5 224.5,313.5C 228.5,313.5 232.5,313.5 236.5,313.5C 249.833,313.5 263.167,313.5 276.5,313.5C 282.167,313.5 287.833,313.5 293.5,313.5C 293.833,313.5 294.167,313.5 294.5,313.5C 302.5,313.5 310.5,313.5 318.5,313.5C 318.833,313.5 319.167,313.5 319.5,313.5C 341.167,313.5 362.833,313.5 384.5,313.5C 384.833,313.5 385.167,313.5 385.5,313.5C 389.479,315.315 392.312,318.315 394,322.5C 394.5,338.163 394.667,353.83 394.5,369.5C 372.78,369.044 351.113,369.544 329.5,371C 309.544,381.093 303.711,396.593 312,417.5C 317.225,426.052 324.725,431.552 334.5,434C 354.497,434.5 374.497,434.667 394.5,434.5C 394.667,453.503 394.5,472.503 394,491.5C 392.358,495.3 389.858,498.3 386.5,500.5C 297.499,500.667 208.499,500.5 119.5,500C 105.364,496.196 97.1977,487.029 95,472.5C 94.5,409.168 94.3333,345.834 94.5,282.5 Z"/></g>
<g><path style="opacity:1" fill="#019915" d="M 236.5,313.5 C 232.5,313.5 228.5,313.5 224.5,313.5C 224.334,307.824 224.501,302.157 225,296.5C 228.667,292.5 232.333,292.5 236,296.5C 236.499,302.157 236.666,307.824 236.5,313.5 Z"/></g>
<g><path style="opacity:1" fill="#6d8a32" d="M 318.5,311.5 C 326.833,311.5 335.167,311.5 343.5,311.5C 335.5,312.167 327.5,312.833 319.5,313.5C 319.167,313.5 318.833,313.5 318.5,313.5C 318.5,312.833 318.5,312.167 318.5,311.5 Z"/></g>
<g><path style="opacity:0.993" fill="#d09457" d="M 385.5,313.5 C 393.174,313.334 400.841,313.5 408.5,314C 411.583,314.786 413.749,316.619 415,319.5C 416.441,336.11 416.941,352.777 416.5,369.5C 416.167,369.5 415.833,369.5 415.5,369.5C 408.5,369.5 401.5,369.5 394.5,369.5C 394.667,353.83 394.5,338.163 394,322.5C 392.312,318.315 389.479,315.315 385.5,313.5 Z"/></g>
<g><path style="opacity:1" fill="#b97f46" d="M 394.5,369.5 C 394.5,390.833 394.5,412.167 394.5,433.5C 401.5,433.5 408.5,433.5 415.5,433.5C 415.5,412.167 415.5,390.833 415.5,369.5C 415.833,369.5 416.167,369.5 416.5,369.5C 416.5,391.167 416.5,412.833 416.5,434.5C 409.167,434.5 401.833,434.5 394.5,434.5C 374.497,434.667 354.497,434.5 334.5,434C 324.725,431.552 317.225,426.052 312,417.5C 303.711,396.593 309.544,381.093 329.5,371C 351.113,369.544 372.78,369.044 394.5,369.5 Z"/></g>
<g><path style="opacity:1" fill="#aa7339" d="M 394.5,369.5 C 401.5,369.5 408.5,369.5 415.5,369.5C 415.5,390.833 415.5,412.167 415.5,433.5C 408.5,433.5 401.5,433.5 394.5,433.5C 394.5,412.167 394.5,390.833 394.5,369.5 Z"/></g>
<g><path style="opacity:1" fill="#fbd5aa" d="M 338.5,388.5 C 350.188,389.018 355.021,395.018 353,406.5C 349.517,413.224 344.017,415.724 336.5,414C 329.22,410.269 326.72,404.435 329,396.5C 331.161,392.495 334.328,389.829 338.5,388.5 Z"/></g>
<g><path style="opacity:0.997" fill="#d19458" d="M 394.5,434.5 C 401.833,434.5 409.167,434.5 416.5,434.5C 416.964,454.567 416.464,474.567 415,494.5C 413.833,497 412,498.833 409.5,500C 401.841,500.5 394.174,500.666 386.5,500.5C 389.858,498.3 392.358,495.3 394,491.5C 394.5,472.503 394.667,453.503 394.5,434.5 Z"/></g>
</svg>
