<?xml version="1.0" encoding="UTF-8"?>
<!DOCTYPE svg PUBLIC "-//W3C//DTD SVG 1.1//EN" "http://www.w3.org/Graphics/SVG/1.1/DTD/svg11.dtd">
<svg xmlns="http://www.w3.org/2000/svg" version="1.1" width="512px" height="512px" style="shape-rendering:geometricPrecision; text-rendering:geometricPrecision; image-rendering:optimizeQuality; fill-rule:evenodd; clip-rule:evenodd" xmlns:xlink="http://www.w3.org/1999/xlink">
<g><path style="opacity:1" fill="#eef4fa" d="M 123.5,-0.5 C 148.5,-0.5 173.5,-0.5 198.5,-0.5C 198.5,24.5 198.5,49.5 198.5,74.5C 193.5,74.5 188.5,74.5 183.5,74.5C 183.5,84.5 183.5,94.5 183.5,104.5C 188.5,104.5 193.5,104.5 198.5,104.5C 198.5,116.167 198.5,127.833 198.5,139.5C 193.5,139.5 188.5,139.5 183.5,139.5C 183.5,149.5 183.5,159.5 183.5,169.5C 188.5,169.5 193.5,169.5 198.5,169.5C 198.5,181.167 198.5,192.833 198.5,204.5C 153.833,204.5 109.167,204.5 64.5,204.5C 64.5,214.5 64.5,224.5 64.5,234.5C 109.167,234.5 153.833,234.5 198.5,234.5C 198.5,246.167 198.5,257.833 198.5,269.5C 153.833,269.5 109.167,269.5 64.5,269.5C 64.5,279.5 64.5,289.5 64.5,299.5C 109.167,299.5 153.833,299.5 198.5,299.5C 198.5,311.167 198.5,322.833 198.5,334.5C 153.833,334.5 109.167,334.5 64.5,334.5C 64.5,344.5 64.5,354.5 64.5,364.5C 109.167,364.5 153.833,364.5 198.5,364.5C 198.5,376.167 198.5,387.833 198.5,399.5C 153.833,399.5 109.167,399.5 64.5,399.5C 64.5,409.5 64.5,419.5 64.5,429.5C 109.167,429.5 153.833,429.5 198.5,429.5C 198.5,456.833 198.5,484.167 198.5,511.5C 132.167,511.5 65.8333,511.5 -0.5,511.5C -0.5,382.167 -0.5,252.833 -0.5,123.5C 40.8333,123.5 82.1667,123.5 123.5,123.5C 123.5,82.1667 123.5,40.8333 123.5,-0.5 Z"/></g>
<g><path style="opacity:1" fill="#c6e1eb" d="M 198.5,-0.5 C 265.167,-0.5 331.833,-0.5 398.5,-0.5C 398.5,46.1667 398.5,92.8333 398.5,139.5C 386.37,136.482 374.037,135.149 361.5,135.5C 348.136,134.71 335.136,136.376 322.5,140.5C 281.337,139.501 240.003,139.168 198.5,139.5C 198.5,127.833 198.5,116.167 198.5,104.5C 243.5,104.5 288.5,104.5 333.5,104.5C 333.5,94.5 333.5,84.5 333.5,74.5C 288.5,74.5 243.5,74.5 198.5,74.5C 198.5,49.5 198.5,24.5 198.5,-0.5 Z"/></g>
<g><path style="opacity:1" fill="#10f5fe" d="M 121.5,-0.5 C 122.167,-0.5 122.833,-0.5 123.5,-0.5C 123.5,40.8333 123.5,82.1667 123.5,123.5C 82.1667,123.5 40.8333,123.5 -0.5,123.5C -0.5,123.167 -0.5,122.833 -0.5,122.5C 40.1395,81.5269 80.8062,40.5269 121.5,-0.5 Z"/></g>
<g><path style="opacity:1" fill="#00b2fe" d="M 198.5,74.5 C 198.5,84.5 198.5,94.5 198.5,104.5C 193.5,104.5 188.5,104.5 183.5,104.5C 183.5,94.5 183.5,84.5 183.5,74.5C 188.5,74.5 193.5,74.5 198.5,74.5 Z"/></g>
<g><path style="opacity:1" fill="#0274f9" d="M 198.5,74.5 C 243.5,74.5 288.5,74.5 333.5,74.5C 333.5,84.5 333.5,94.5 333.5,104.5C 288.5,104.5 243.5,104.5 198.5,104.5C 198.5,94.5 198.5,84.5 198.5,74.5 Z"/></g>
<g><path style="opacity:1" fill="#aae135" d="M 361.5,135.5 C 361.5,187.167 361.5,238.833 361.5,290.5C 361.5,290.833 361.5,291.167 361.5,291.5C 353.23,300.272 344.73,308.938 336,317.5C 319.951,301.616 303.451,286.282 286.5,271.5C 279.15,277.884 272.483,284.884 266.5,292.5C 289.822,314.988 313.322,337.322 337,359.5C 345.364,351.47 353.364,343.137 361,334.5C 361.5,368.165 361.667,401.832 361.5,435.5C 346.707,435.645 332.374,433.312 318.5,428.5C 308.416,425.794 298.749,421.961 289.5,417C 280.388,411.703 271.722,405.869 263.5,399.5C 258.203,393.702 252.703,388.035 247,382.5C 241.987,376.451 237.487,370.118 233.5,363.5C 227.998,354.165 223.332,344.499 219.5,334.5C 215.371,321.007 212.704,307.34 211.5,293.5C 211.5,286.833 211.5,280.167 211.5,273.5C 212.861,260.365 215.528,247.365 219.5,234.5C 223.94,224.287 228.94,214.287 234.5,204.5C 243.198,191.477 253.531,179.811 265.5,169.5C 282.395,155.885 301.395,146.219 322.5,140.5C 335.136,136.376 348.136,134.71 361.5,135.5 Z"/></g>
<g><path style="opacity:1" fill="#56c025" d="M 361.5,135.5 C 374.037,135.149 386.37,136.482 398.5,139.5C 452.708,154.54 488.542,188.873 506,242.5C 508.278,250.877 510.111,259.21 511.5,267.5C 511.5,279.167 511.5,290.833 511.5,302.5C 503.114,358.386 473.447,398.553 422.5,423C 414.832,426.612 406.832,429.112 398.5,430.5C 386.376,433.557 374.043,435.224 361.5,435.5C 361.667,401.832 361.5,368.165 361,334.5C 353.364,343.137 345.364,351.47 337,359.5C 313.322,337.322 289.822,314.988 266.5,292.5C 272.483,284.884 279.15,277.884 286.5,271.5C 303.451,286.282 319.951,301.616 336,317.5C 344.73,308.938 353.23,300.272 361.5,291.5C 361.333,305.504 361.5,319.504 362,333.5C 393.833,301 425.667,268.5 457.5,236C 450.833,229.333 444.167,222.667 437.5,216C 436.5,215.333 435.5,215.333 434.5,216C 410.299,241.033 385.966,265.867 361.5,290.5C 361.5,238.833 361.5,187.167 361.5,135.5 Z"/></g>
<g><path style="opacity:1" fill="#00b2fe" d="M 198.5,139.5 C 198.5,149.5 198.5,159.5 198.5,169.5C 193.5,169.5 188.5,169.5 183.5,169.5C 183.5,159.5 183.5,149.5 183.5,139.5C 188.5,139.5 193.5,139.5 198.5,139.5 Z"/></g>
<g><path style="opacity:1" fill="#0374f8" d="M 198.5,139.5 C 240.003,139.168 281.337,139.501 322.5,140.5C 301.395,146.219 282.395,155.885 265.5,169.5C 243.167,169.5 220.833,169.5 198.5,169.5C 198.5,159.5 198.5,149.5 198.5,139.5 Z"/></g>
<g><path style="opacity:1" fill="#c6e1eb" d="M 198.5,169.5 C 220.833,169.5 243.167,169.5 265.5,169.5C 253.531,179.811 243.198,191.477 234.5,204.5C 222.5,204.5 210.5,204.5 198.5,204.5C 198.5,192.833 198.5,181.167 198.5,169.5 Z"/></g>
<g><path style="opacity:1" fill="#00b3fe" d="M 198.5,204.5 C 198.5,214.5 198.5,224.5 198.5,234.5C 153.833,234.5 109.167,234.5 64.5,234.5C 64.5,224.5 64.5,214.5 64.5,204.5C 109.167,204.5 153.833,204.5 198.5,204.5 Z"/></g>
<g><path style="opacity:1" fill="#0474f8" d="M 198.5,204.5 C 210.5,204.5 222.5,204.5 234.5,204.5C 228.94,214.287 223.94,224.287 219.5,234.5C 212.5,234.5 205.5,234.5 198.5,234.5C 198.5,224.5 198.5,214.5 198.5,204.5 Z"/></g>
<g><path style="opacity:1" fill="#019959" d="M 361.5,291.5 C 361.5,291.167 361.5,290.833 361.5,290.5C 385.966,265.867 410.299,241.033 434.5,216C 435.5,215.333 436.5,215.333 437.5,216C 444.167,222.667 450.833,229.333 457.5,236C 425.667,268.5 393.833,301 362,333.5C 361.5,319.504 361.333,305.504 361.5,291.5 Z"/></g>
<g><path style="opacity:1" fill="#c5e0eb" d="M 198.5,234.5 C 205.5,234.5 212.5,234.5 219.5,234.5C 215.528,247.365 212.861,260.365 211.5,273.5C 211.5,272.167 211.5,270.833 211.5,269.5C 207.167,269.5 202.833,269.5 198.5,269.5C 198.5,257.833 198.5,246.167 198.5,234.5 Z"/></g>
<g><path style="opacity:1" fill="#00b3fe" d="M 198.5,269.5 C 198.5,279.5 198.5,289.5 198.5,299.5C 153.833,299.5 109.167,299.5 64.5,299.5C 64.5,289.5 64.5,279.5 64.5,269.5C 109.167,269.5 153.833,269.5 198.5,269.5 Z"/></g>
<g><path style="opacity:1" fill="#0274f9" d="M 198.5,269.5 C 202.833,269.5 207.167,269.5 211.5,269.5C 211.5,270.833 211.5,272.167 211.5,273.5C 211.5,280.167 211.5,286.833 211.5,293.5C 211.5,295.5 211.5,297.5 211.5,299.5C 207.167,299.5 202.833,299.5 198.5,299.5C 198.5,289.5 198.5,279.5 198.5,269.5 Z"/></g>
<g><path style="opacity:1" fill="#c5e0e9" d="M 211.5,293.5 C 212.704,307.34 215.371,321.007 219.5,334.5C 212.5,334.5 205.5,334.5 198.5,334.5C 198.5,322.833 198.5,311.167 198.5,299.5C 202.833,299.5 207.167,299.5 211.5,299.5C 211.5,297.5 211.5,295.5 211.5,293.5 Z"/></g>
<g><path style="opacity:1" fill="#00b3fe" d="M 198.5,334.5 C 198.5,344.5 198.5,354.5 198.5,364.5C 153.833,364.5 109.167,364.5 64.5,364.5C 64.5,354.5 64.5,344.5 64.5,334.5C 109.167,334.5 153.833,334.5 198.5,334.5 Z"/></g>
<g><path style="opacity:1" fill="#0574f8" d="M 198.5,334.5 C 205.5,334.5 212.5,334.5 219.5,334.5C 223.332,344.499 227.998,354.165 233.5,363.5C 222.012,364.495 210.345,364.828 198.5,364.5C 198.5,354.5 198.5,344.5 198.5,334.5 Z"/></g>
<g><path style="opacity:1" fill="#c6e1eb" d="M 233.5,363.5 C 237.487,370.118 241.987,376.451 247,382.5C 252.703,388.035 258.203,393.702 263.5,399.5C 241.833,399.5 220.167,399.5 198.5,399.5C 198.5,387.833 198.5,376.167 198.5,364.5C 210.345,364.828 222.012,364.495 233.5,363.5 Z"/></g>
<g><path style="opacity:1" fill="#00b3fe" d="M 198.5,399.5 C 198.5,409.5 198.5,419.5 198.5,429.5C 153.833,429.5 109.167,429.5 64.5,429.5C 64.5,419.5 64.5,409.5 64.5,399.5C 109.167,399.5 153.833,399.5 198.5,399.5 Z"/></g>
<g><path style="opacity:1" fill="#0374f8" d="M 198.5,399.5 C 220.167,399.5 241.833,399.5 263.5,399.5C 271.722,405.869 280.388,411.703 289.5,417C 298.749,421.961 308.416,425.794 318.5,428.5C 278.67,429.499 238.67,429.832 198.5,429.5C 198.5,419.5 198.5,409.5 198.5,399.5 Z"/></g>
<g><path style="opacity:1" fill="#c6e1eb" d="M 318.5,428.5 C 332.374,433.312 346.707,435.645 361.5,435.5C 374.043,435.224 386.376,433.557 398.5,430.5C 398.5,457.5 398.5,484.5 398.5,511.5C 331.833,511.5 265.167,511.5 198.5,511.5C 198.5,484.167 198.5,456.833 198.5,429.5C 238.67,429.832 278.67,429.499 318.5,428.5 Z"/></g>
</svg>
