<?xml version="1.0" encoding="UTF-8"?>
<!DOCTYPE svg PUBLIC "-//W3C//DTD SVG 1.1//EN" "http://www.w3.org/Graphics/SVG/1.1/DTD/svg11.dtd">
<svg xmlns="http://www.w3.org/2000/svg" version="1.1" width="512px" height="512px" style="shape-rendering:geometricPrecision; text-rendering:geometricPrecision; image-rendering:optimizeQuality; fill-rule:evenodd; clip-rule:evenodd" xmlns:xlink="http://www.w3.org/1999/xlink">
<g><path style="opacity:0.999" fill="#8c3f09" d="M 351.5,48.5 C 351.687,50.5643 352.187,52.5643 353,54.5C 353.5,86.4983 353.667,118.498 353.5,150.5C 347.79,150.405 342.457,151.738 337.5,154.5C 337.667,129.831 337.5,105.164 337,80.5C 334.939,76.0186 331.439,74.3519 326.5,75.5C 323.167,75.5 319.833,75.5 316.5,75.5C 312.5,75.5 308.5,75.5 304.5,75.5C 304.666,70.8215 304.499,66.1548 304,61.5C 302.5,58.6667 300.333,56.5 297.5,55C 237.833,54.3333 178.167,54.3333 118.5,55C 115.417,55.786 113.251,57.6193 112,60.5C 111.501,65.4889 111.334,70.4889 111.5,75.5C 101.828,75.3335 92.1609,75.5002 82.5,76C 80.8588,77.129 79.8588,78.629 79.5,80.5C 78.8333,138.832 78.5,197.332 78.5,256C 78.3369,315.248 78.8369,374.415 80,433.5C 81.4194,434.46 82.9194,435.293 84.5,436C 166.833,436.667 249.167,436.667 331.5,436C 334,434.833 335.833,433 337,430.5C 337.5,405.836 337.667,381.169 337.5,356.5C 342.409,359.394 347.742,360.727 353.5,360.5C 353.667,385.836 353.5,411.169 353,436.5C 351.455,443.446 347.622,448.613 341.5,452C 293.544,453.157 245.544,453.657 197.5,453.5C 149.805,453.493 102.138,453.16 54.5,452.5C 52.9318,450.189 52.0984,447.522 52,444.5C 51.3333,318.5 51.3333,192.5 52,66.5C 53.0358,55.1309 59.2024,48.6309 70.5,47C 162.167,46.3333 253.833,46.3333 345.5,47C 347.586,47.3153 349.586,47.8153 351.5,48.5 Z"/></g>
<g><path style="opacity:1" fill="#7c3108" d="M 351.5,48.5 C 357.165,51.1301 360.998,55.4634 363,61.5C 363.5,91.4981 363.667,121.498 363.5,151.5C 360.214,150.793 356.881,150.46 353.5,150.5C 353.667,118.498 353.5,86.4983 353,54.5C 352.187,52.5643 351.687,50.5643 351.5,48.5 Z"/></g>
<g><path style="opacity:1" fill="#ea7616" d="M 304.5,75.5 C 297.833,75.5 291.167,75.5 284.5,75.5C 284.665,71.8183 284.499,68.1516 284,64.5C 283.097,63.2986 281.931,62.4652 280.5,62C 231.833,61.3333 183.167,61.3333 134.5,62C 130.904,65.7346 129.571,70.2346 130.5,75.5C 124.167,75.5 117.833,75.5 111.5,75.5C 111.334,70.4889 111.501,65.4889 112,60.5C 113.251,57.6193 115.417,55.786 118.5,55C 178.167,54.3333 237.833,54.3333 297.5,55C 300.333,56.5 302.5,58.6667 304,61.5C 304.499,66.1548 304.666,70.8215 304.5,75.5 Z"/></g>
<g><path style="opacity:1" fill="#feaa20" d="M 284.5,75.5 C 284.666,84.8393 284.5,94.1726 284,103.5C 282.786,105.049 281.286,106.215 279.5,107C 231.5,107.667 183.5,107.667 135.5,107C 133.622,105.457 132.122,103.624 131,101.5C 130.5,92.8397 130.334,84.1731 130.5,75.5C 129.571,70.2346 130.904,65.7346 134.5,62C 183.167,61.3333 231.833,61.3333 280.5,62C 281.931,62.4652 283.097,63.2986 284,64.5C 284.499,68.1516 284.665,71.8183 284.5,75.5 Z"/></g>
<g><path style="opacity:1" fill="#f99818" d="M 138.5,69.5 C 184.664,68.5012 230.997,68.1679 277.5,68.5C 277.5,70.8333 277.5,73.1667 277.5,75.5C 277.167,75.5 276.833,75.5 276.5,75.5C 276.5,73.5 276.5,71.5 276.5,69.5C 230.5,69.5 184.5,69.5 138.5,69.5 Z"/></g>
<g><path style="opacity:1" fill="#ed791a" d="M 138.5,69.5 C 184.5,69.5 230.5,69.5 276.5,69.5C 276.5,71.5 276.5,73.5 276.5,75.5C 230.833,75.5 185.167,75.5 139.5,75.5C 139.167,75.5 138.833,75.5 138.5,75.5C 138.5,73.5 138.5,71.5 138.5,69.5 Z"/></g>
<g><path style="opacity:1" fill="#f0f1f1" d="M 111.5,75.5 C 117.833,75.5 124.167,75.5 130.5,75.5C 130.334,84.1731 130.5,92.8397 131,101.5C 132.122,103.624 133.622,105.457 135.5,107C 183.5,107.667 231.5,107.667 279.5,107C 281.286,106.215 282.786,105.049 284,103.5C 284.5,94.1726 284.666,84.8393 284.5,75.5C 291.167,75.5 297.833,75.5 304.5,75.5C 308.5,75.5 312.5,75.5 316.5,75.5C 316.5,106.5 316.5,137.5 316.5,168.5C 308.674,170.734 300.674,172.234 292.5,173C 286.835,175.175 281.835,178.341 277.5,182.5C 258.164,182.333 238.83,182.5 219.5,183C 212.487,189.598 213.154,195.264 221.5,200C 237.497,200.5 253.497,200.667 269.5,200.5C 270.056,215.01 264.889,227.01 254,236.5C 252.454,239.592 250.954,242.592 249.5,245.5C 239.828,245.334 230.161,245.5 220.5,246C 214.632,249.04 213.132,253.54 216,259.5C 217.214,261.049 218.714,262.215 220.5,263C 230.161,263.5 239.828,263.666 249.5,263.5C 250.734,268.207 252.734,272.54 255.5,276.5C 244.162,276.333 232.828,276.5 221.5,277C 214.425,279.924 212.758,284.757 216.5,291.5C 218.028,292.861 219.695,294.028 221.5,295C 236.83,295.5 252.163,295.667 267.5,295.5C 269.118,300.903 269.951,306.57 270,312.5C 270.698,315.004 271.531,317.337 272.5,319.5C 278.085,330.647 287.085,337.48 299.5,340C 305.324,340.121 310.99,340.954 316.5,342.5C 316.667,365.502 316.5,388.502 316,411.5C 315.5,413.333 314.333,414.5 312.5,415C 234.834,415.5 157.167,415.667 79.5,415.5C 79.5,303.833 79.5,192.167 79.5,80.5C 79.8588,78.629 80.8588,77.129 82.5,76C 92.1609,75.5002 101.828,75.3335 111.5,75.5 Z"/></g>
<g><path style="opacity:1" fill="#e6e7e7" d="M 316.5,75.5 C 319.833,75.5 323.167,75.5 326.5,75.5C 326.5,104.5 326.5,133.5 326.5,162.5C 323.839,165.502 320.505,167.502 316.5,168.5C 316.5,137.5 316.5,106.5 316.5,75.5 Z"/></g>
<g><path style="opacity:1" fill="#d0cecd" d="M 326.5,75.5 C 331.439,74.3519 334.939,76.0186 337,80.5C 337.5,105.164 337.667,129.831 337.5,154.5C 333.656,156.922 329.99,159.589 326.5,162.5C 326.5,133.5 326.5,104.5 326.5,75.5 Z"/></g>
<g><path style="opacity:1" fill="#fdfdfd" d="M 88.5,83.5 C 99.415,83.1797 110.248,83.513 121,84.5C 123.072,87.2066 122.572,89.3732 119.5,91C 111.507,91.4997 103.507,91.6664 95.5,91.5C 95.6667,190.167 95.5,288.834 95,387.5C 92.3333,390.167 89.6667,390.167 87,387.5C 86.3333,286.833 86.3333,186.167 87,85.5C 87.7172,84.9558 88.2172,84.2891 88.5,83.5 Z"/></g>
<g><path style="opacity:1" fill="#f6d7a5" d="M 138.5,75.5 C 138.833,75.5 139.167,75.5 139.5,75.5C 139.5,83.1667 139.5,90.8333 139.5,98.5C 185.167,98.5 230.833,98.5 276.5,98.5C 276.5,90.8333 276.5,83.1667 276.5,75.5C 276.833,75.5 277.167,75.5 277.5,75.5C 277.5,83.5 277.5,91.5 277.5,99.5C 231.167,99.5 184.833,99.5 138.5,99.5C 138.5,91.5 138.5,83.5 138.5,75.5 Z"/></g>
<g><path style="opacity:1" fill="#f0f2f1" d="M 139.5,75.5 C 185.167,75.5 230.833,75.5 276.5,75.5C 276.5,83.1667 276.5,90.8333 276.5,98.5C 230.833,98.5 185.167,98.5 139.5,98.5C 139.5,90.8333 139.5,83.1667 139.5,75.5 Z"/></g>
<g><path style="opacity:1" fill="#d1d3d4" d="M 133.5,138.5 C 155.095,137.546 169.595,147.213 177,167.5C 179.803,185.053 173.969,198.886 159.5,209C 138.838,219.043 121.671,214.876 108,196.5C 97.4723,175.446 101.639,157.946 120.5,144C 124.741,141.651 129.075,139.818 133.5,138.5 Z"/></g>
<g><path style="opacity:1" fill="#d1d3d4" d="M 220.5,150.5 C 243.169,150.333 265.836,150.5 288.5,151C 295.16,153.49 296.993,157.99 294,164.5C 292.833,165.667 291.667,166.833 290.5,168C 266.833,168.667 243.167,168.667 219.5,168C 212.642,161.676 212.976,155.843 220.5,150.5 Z"/></g>
<g><path style="opacity:0.999" fill="#fea91a" d="M 353.5,150.5 C 356.881,150.46 360.214,150.793 363.5,151.5C 370.596,153.552 376.596,157.385 381.5,163C 384.339,164.92 387.339,166.587 390.5,168C 399.355,169.563 408.021,171.396 416.5,173.5C 416.062,173.435 415.728,173.601 415.5,174C 416.406,176.447 417.239,178.947 418,181.5C 418.159,186.916 418.826,192.25 420,197.5C 425.636,206.48 431.302,215.48 437,224.5C 440.406,236.502 438.406,247.502 431,257.5C 426.132,262.03 422.465,267.363 420,273.5C 419.05,281.222 417.717,288.889 416,296.5C 412.648,305.853 406.481,312.686 397.5,317C 388.514,318.721 379.514,320.388 370.5,322C 363.793,325.354 357.793,329.687 352.5,335C 342.311,341.014 331.644,342.014 320.5,338C 313.793,334.646 307.793,330.313 302.5,325C 292.847,320.111 282.847,318.278 272.5,319.5C 271.531,317.337 270.698,315.004 270,312.5C 269.951,306.57 269.118,300.903 267.5,295.5C 265.263,288.021 261.263,281.688 255.5,276.5C 252.734,272.54 250.734,268.207 249.5,263.5C 248.344,257.527 248.344,251.527 249.5,245.5C 250.954,242.592 252.454,239.592 254,236.5C 264.889,227.01 270.056,215.01 269.5,200.5C 271.096,193.978 273.763,187.978 277.5,182.5C 281.835,178.341 286.835,175.175 292.5,173C 300.674,172.234 308.674,170.734 316.5,168.5C 320.505,167.502 323.839,165.502 326.5,162.5C 329.99,159.589 333.656,156.922 337.5,154.5C 342.457,151.738 347.79,150.405 353.5,150.5 Z"/></g>
<g><path style="opacity:1" fill="#fdfdfd" d="M 153.5,162.5 C 160.827,161.329 163.994,164.329 163,171.5C 155.865,179.636 148.365,187.47 140.5,195C 137.5,197 134.5,197 131.5,195C 127,190.5 122.5,186 118,181.5C 115.167,172.333 118.333,169.167 127.5,172C 130.333,174.833 133.167,177.667 136,180.5C 142.036,174.631 147.87,168.631 153.5,162.5 Z"/></g>
<g><path style="opacity:1" fill="#f79219" d="M 416.5,173.5 C 425.758,176.924 432.258,183.257 436,192.5C 437.726,201.152 439.393,209.818 441,218.5C 444.888,225.72 449.555,232.386 455,238.5C 462.327,255.544 459.327,270.544 446,283.5C 444.08,286.339 442.413,289.339 441,292.5C 439.249,300.09 437.916,307.757 437,315.5C 433.656,326.177 426.823,333.677 416.5,338C 407.818,339.607 399.152,341.274 390.5,343C 383.28,346.888 376.614,351.555 370.5,357C 368.146,357.847 365.812,358.68 363.5,359.5C 360.214,360.207 356.881,360.54 353.5,360.5C 347.742,360.727 342.409,359.394 337.5,356.5C 333.302,354.567 329.635,351.901 326.5,348.5C 323.502,345.998 320.168,343.998 316.5,342.5C 310.99,340.954 305.324,340.121 299.5,340C 287.085,337.48 278.085,330.647 272.5,319.5C 282.847,318.278 292.847,320.111 302.5,325C 307.793,330.313 313.793,334.646 320.5,338C 331.644,342.014 342.311,341.014 352.5,335C 357.793,329.687 363.793,325.354 370.5,322C 379.514,320.388 388.514,318.721 397.5,317C 406.481,312.686 412.648,305.853 416,296.5C 417.717,288.889 419.05,281.222 420,273.5C 422.465,267.363 426.132,262.03 431,257.5C 438.406,247.502 440.406,236.502 437,224.5C 431.302,215.48 425.636,206.48 420,197.5C 418.826,192.25 418.159,186.916 418,181.5C 417.239,178.947 416.406,176.447 415.5,174C 415.728,173.601 416.062,173.435 416.5,173.5 Z"/></g>
<g><path style="opacity:1" fill="#d1d3d4" d="M 277.5,182.5 C 273.763,187.978 271.096,193.978 269.5,200.5C 253.497,200.667 237.497,200.5 221.5,200C 213.154,195.264 212.487,189.598 219.5,183C 238.83,182.5 258.164,182.333 277.5,182.5 Z"/></g>
<g><path style="opacity:1" fill="#fffefc" d="M 389.5,214.5 C 405.625,213.452 412.459,220.786 410,236.5C 392.561,255.941 374.394,274.774 355.5,293C 348.887,297.994 341.887,298.661 334.5,295C 321.269,282.438 308.769,269.272 297,255.5C 294.458,243.219 299.291,236.219 311.5,234.5C 315.067,234.411 318.4,235.245 321.5,237C 328.681,244.348 336.014,251.515 343.5,258.5C 358.577,243.42 373.911,228.753 389.5,214.5 Z"/></g>
<g><path style="opacity:1" fill="#d1d3d4" d="M 131.5,232.5 C 162.784,231.367 177.951,246.367 177,277.5C 170.464,299.683 155.631,309.516 132.5,307C 109.837,300.309 100.004,285.142 103,261.5C 107.35,246.651 116.85,236.985 131.5,232.5 Z"/></g>
<g><path style="opacity:1" fill="#d1d3d3" d="M 249.5,245.5 C 248.344,251.527 248.344,257.527 249.5,263.5C 239.828,263.666 230.161,263.5 220.5,263C 218.714,262.215 217.214,261.049 216,259.5C 213.132,253.54 214.632,249.04 220.5,246C 230.161,245.5 239.828,245.334 249.5,245.5 Z"/></g>
<g><path style="opacity:1" fill="#fefefe" d="M 154.5,255.5 C 161.484,255.317 164.317,258.65 163,265.5C 154.833,273.667 146.667,281.833 138.5,290C 135.449,290.857 132.783,290.19 130.5,288C 126.333,283.833 122.167,279.667 118,275.5C 114.919,267.246 117.752,263.746 126.5,265C 129.38,268.217 132.547,271.05 136,273.5C 142.658,268.008 148.825,262.008 154.5,255.5 Z"/></g>
<g><path style="opacity:1" fill="#d2d4d4" d="M 255.5,276.5 C 261.263,281.688 265.263,288.021 267.5,295.5C 252.163,295.667 236.83,295.5 221.5,295C 219.695,294.028 218.028,292.861 216.5,291.5C 212.758,284.757 214.425,279.924 221.5,277C 232.828,276.5 244.162,276.333 255.5,276.5 Z"/></g>
<g><path style="opacity:1" fill="#d1d3d4" d="M 131.5,326.5 C 154.263,324.455 169.43,334.122 177,355.5C 178.494,387.34 163.327,402.506 131.5,401C 109.969,393.45 100.469,378.283 103,355.5C 107.35,340.651 116.85,330.985 131.5,326.5 Z"/></g>
<g><path style="opacity:1" fill="#d1d3d4" d="M 219.5,340.5 C 243.169,340.333 266.836,340.5 290.5,341C 295.614,344.456 296.781,348.956 294,354.5C 292.681,356.487 290.848,357.654 288.5,358C 265.833,358.667 243.167,358.667 220.5,358C 212.866,352.666 212.533,346.833 219.5,340.5 Z"/></g>
<g><path style="opacity:1" fill="#e6e7e8" d="M 316.5,342.5 C 320.168,343.998 323.502,345.998 326.5,348.5C 326.667,373.169 326.5,397.836 326,422.5C 325.097,423.701 323.931,424.535 322.5,425C 241.501,425.5 160.501,425.667 79.5,425.5C 79.5,422.167 79.5,418.833 79.5,415.5C 157.167,415.667 234.834,415.5 312.5,415C 314.333,414.5 315.5,413.333 316,411.5C 316.5,388.502 316.667,365.502 316.5,342.5 Z"/></g>
<g><path style="opacity:1" fill="#cec9c6" d="M 79.5,80.5 C 79.5,192.167 79.5,303.833 79.5,415.5C 79.5,418.833 79.5,422.167 79.5,425.5C 160.501,425.667 241.501,425.5 322.5,425C 323.931,424.535 325.097,423.701 326,422.5C 326.5,397.836 326.667,373.169 326.5,348.5C 329.635,351.901 333.302,354.567 337.5,356.5C 337.667,381.169 337.5,405.836 337,430.5C 335.833,433 334,434.833 331.5,436C 249.167,436.667 166.833,436.667 84.5,436C 82.9194,435.293 81.4194,434.46 80,433.5C 78.8369,374.415 78.3369,315.248 78.5,256C 78.5,197.332 78.8333,138.832 79.5,80.5 Z"/></g>
<g><path style="opacity:1" fill="#fefefe" d="M 154.5,349.5 C 161.329,348.828 164.163,351.828 163,358.5C 155.531,366.97 147.698,375.137 139.5,383C 137.167,383.667 134.833,383.667 132.5,383C 127.333,377.833 122.167,372.667 117,367.5C 115.382,360.205 118.215,357.038 125.5,358C 128.682,361.349 132.015,364.516 135.5,367.5C 141.88,361.451 148.213,355.451 154.5,349.5 Z"/></g>
<g><path style="opacity:1" fill="#7c3108" d="M 363.5,359.5 C 363.667,389.502 363.5,419.502 363,449.5C 360.925,455.91 356.758,460.41 350.5,463C 257.202,464.654 163.869,464.988 70.5,464C 62.748,463.31 57.4147,459.477 54.5,452.5C 102.138,453.16 149.805,453.493 197.5,453.5C 245.544,453.657 293.544,453.157 341.5,452C 347.622,448.613 351.455,443.446 353,436.5C 353.5,411.169 353.667,385.836 353.5,360.5C 356.881,360.54 360.214,360.207 363.5,359.5 Z"/></g>
<g><path style="opacity:1" fill="#d1d3d4" d="M 220.5,371.5 C 249.502,371.333 278.502,371.5 307.5,372C 315.079,377.167 315.412,382.833 308.5,389C 278.833,389.667 249.167,389.667 219.5,389C 212.642,382.676 212.976,376.843 220.5,371.5 Z"/></g>
</svg>
