<?xml version="1.0" encoding="UTF-8"?>
<!DOCTYPE svg PUBLIC "-//W3C//DTD SVG 1.1//EN" "http://www.w3.org/Graphics/SVG/1.1/DTD/svg11.dtd">
<svg xmlns="http://www.w3.org/2000/svg" version="1.1" width="512px" height="512px" style="shape-rendering:geometricPrecision; text-rendering:geometricPrecision; image-rendering:optimizeQuality; fill-rule:evenodd; clip-rule:evenodd" xmlns:xlink="http://www.w3.org/1999/xlink">
<g><path style="opacity:0.891" fill="#a3a3cd" d="M 245.5,10.5 C 245.401,16.3267 244.401,21.9933 242.5,27.5C 236.275,30.0735 230.108,32.7401 224,35.5C 223.283,34.9558 222.783,34.2891 222.5,33.5C 227.289,30.9418 232.289,28.6084 237.5,26.5C 239.465,21.3453 240.799,16.012 241.5,10.5C 242.833,10.5 244.167,10.5 245.5,10.5 Z"/></g>
<g><path style="opacity:1" fill="#bbbde1" d="M 245.5,10.5 C 253.5,10.5 261.5,10.5 269.5,10.5C 270.201,16.012 271.535,21.3453 273.5,26.5C 278.741,28.7046 283.908,31.038 289,33.5C 293.408,30.0903 298.075,27.0903 303,24.5C 309.624,30.1218 315.957,36.1218 322,42.5C 319.953,47.7707 317.12,52.7707 313.5,57.5C 315.545,63.1396 317.879,68.6396 320.5,74C 325.76,74.9178 330.927,76.0844 336,77.5C 336.5,86.8274 336.666,96.1607 336.5,105.5C 330.846,105.798 325.346,106.798 320,108.5C 317.736,113.793 315.569,119.127 313.5,124.5C 316.5,129.167 319.5,133.833 322.5,138.5C 316.682,144.819 310.682,150.986 304.5,157C 298.707,155.594 293.541,152.76 289,148.5C 283.908,150.962 278.741,153.295 273.5,155.5C 271.535,160.655 270.201,165.988 269.5,171.5C 261.5,171.5 253.5,171.5 245.5,171.5C 245.334,165.668 244.334,160.001 242.5,154.5C 236.382,152.02 230.382,149.353 224.5,146.5C 223.478,146.855 222.811,147.522 222.5,148.5C 219.003,151.083 215.336,153.416 211.5,155.5C 205.991,149.825 200.658,143.991 195.5,138C 198.439,133.451 201.106,128.784 203.5,124C 201.146,117.457 198.646,110.957 196,104.5C 190.97,102.927 185.803,101.927 180.5,101.5C 180.5,94.5 180.5,87.5 180.5,80.5C 186.048,80.361 191.215,79.0277 196,76.5C 198.991,70.3592 201.491,64.0258 203.5,57.5C 200.968,52.9391 198.302,48.4391 195.5,44C 200.658,38.0085 205.991,32.1752 211.5,26.5C 215.336,28.5836 219.003,30.917 222.5,33.5C 222.783,34.2891 223.283,34.9558 224,35.5C 230.108,32.7401 236.275,30.0735 242.5,27.5C 244.401,21.9933 245.401,16.3267 245.5,10.5 Z"/></g>
<g><path style="opacity:0.943" fill="#a3a3cc" d="M 211.5,26.5 C 205.991,32.1752 200.658,38.0085 195.5,44C 198.302,48.4391 200.968,52.9391 203.5,57.5C 201.491,64.0258 198.991,70.3592 196,76.5C 191.215,79.0277 186.048,80.361 180.5,80.5C 180.5,87.5 180.5,94.5 180.5,101.5C 185.803,101.927 190.97,102.927 196,104.5C 198.646,110.957 201.146,117.457 203.5,124C 201.106,128.784 198.439,133.451 195.5,138C 200.658,143.991 205.991,149.825 211.5,155.5C 210.201,157.099 208.535,157.599 206.5,157C 200.667,151.167 194.833,145.333 189,139.5C 191.047,134.229 193.88,129.229 197.5,124.5C 195.455,118.86 193.121,113.36 190.5,108C 185.24,107.082 180.073,105.916 175,104.5C 174.333,95.5 174.333,86.5 175,77.5C 180.073,76.0844 185.24,74.9178 190.5,74C 193.121,68.6396 195.455,63.1396 197.5,57.5C 193.88,52.7707 191.047,47.7707 189,42.5C 194.833,36.6667 200.667,30.8333 206.5,25C 208.535,24.4014 210.201,24.9014 211.5,26.5 Z"/></g>
<g><path style="opacity:0.929" fill="#7886be" d="M 135.5,36.5 C 145.603,37.2873 155.437,39.2873 165,42.5C 166.301,44.3646 166.635,46.3646 166,48.5C 162.333,55.1667 158.667,61.8333 155,68.5C 152.321,71.8346 149.155,72.3346 145.5,70C 144.402,66.4878 144.402,63.3212 145.5,60.5C 117.986,76.1139 94.6523,96.6139 75.5,122C 68.6907,124.196 65.8574,121.696 67,114.5C 87.879,87.6138 113.046,65.7805 142.5,49C 139.762,48.0173 137.095,46.8506 134.5,45.5C 132.992,42.2313 133.325,39.2313 135.5,36.5 Z"/></g>
<g><path style="opacity:0.928" fill="#7886bf" d="M 346.5,39.5 C 371.383,49.2718 393.716,63.1051 413.5,81C 419.333,86.8333 425.167,92.6667 431,98.5C 431.206,95.3771 431.873,92.3771 433,89.5C 436.271,86.8028 439.271,87.1361 442,90.5C 442.363,97.8434 442.863,105.177 443.5,112.5C 444.212,117.429 442.212,120.429 437.5,121.5C 429.109,119.153 420.776,116.653 412.5,114C 410.114,111.293 409.948,108.46 412,105.5C 414.74,104.718 417.574,104.218 420.5,104C 398.999,80.585 373.666,62.585 344.5,50C 341.602,45.7656 342.269,42.2656 346.5,39.5 Z"/></g>
<g><path style="opacity:1" fill="#f2f2fe" d="M 266.5,51.5 C 285.247,57.4843 295.247,70.3176 296.5,90C 295.849,110.482 285.849,123.982 266.5,130.5C 242.488,135.076 225.655,126.076 216,103.5C 210.768,79.4648 219.268,62.2981 241.5,52C 249.792,48.9029 258.125,48.7363 266.5,51.5 Z"/></g>
<g><path style="opacity:1" fill="#a5a6ce" d="M 266.5,51.5 C 272.05,51.1685 277.383,52.6685 282.5,56C 303.461,72.4509 307.294,92.2843 294,115.5C 290.833,118.667 287.667,121.833 284.5,125C 280.286,127.274 275.953,129.274 271.5,131C 269.613,131.78 267.946,131.613 266.5,130.5C 285.849,123.982 295.849,110.482 296.5,90C 295.247,70.3176 285.247,57.4843 266.5,51.5 Z"/></g>
<g><path style="opacity:0.887" fill="#2a92fa" d="M 410.5,141.5 C 409.858,147.501 408.524,153.335 406.5,159C 400.459,161.402 394.459,163.902 388.5,166.5C 387.478,166.145 386.811,165.478 386.5,164.5C 392.203,162.231 397.703,159.565 403,156.5C 404.158,151.543 404.992,146.543 405.5,141.5C 407.167,141.5 408.833,141.5 410.5,141.5 Z"/></g>
<g><path style="opacity:1" fill="#42ee42" d="M 47.5,286.5 C 41.521,281.188 35.8543,275.521 30.5,269.5C 33.8781,265.241 36.8781,260.741 39.5,256C 37.0808,248.995 34.2475,242.162 31,235.5C 26.2684,234.127 21.4351,233.127 16.5,232.5C 16.5,225.5 16.5,218.5 16.5,211.5C 21.7555,211.649 26.7555,210.649 31.5,208.5C 34.0285,201.943 36.6952,195.443 39.5,189C 36.7556,184.18 33.7556,179.513 30.5,175C 36.0353,169.297 41.7019,163.797 47.5,158.5C 51.0607,160.048 54.394,162.048 57.5,164.5C 62.9762,162.065 68.4762,159.732 74,157.5C 74.9178,152.24 76.0844,147.073 77.5,142C 86.8274,141.5 96.1607,141.334 105.5,141.5C 106.008,146.543 106.842,151.543 108,156.5C 113.231,159.638 118.731,162.304 124.5,164.5C 129.229,160.88 134.229,158.047 139.5,156C 145.878,162.043 151.878,168.376 157.5,175C 154.611,179.72 151.944,184.553 149.5,189.5C 151.498,194.494 153.498,199.494 155.5,204.5C 161.042,206.342 166.709,207.675 172.5,208.5C 172.5,217.833 172.5,227.167 172.5,236.5C 167.81,237.138 163.144,237.971 158.5,239C 156.939,239.318 155.772,240.151 155,241.5C 152.886,246.06 151.053,250.726 149.5,255.5C 151.735,259.63 154.235,263.63 157,267.5C 157.667,268.833 157.667,270.167 157,271.5C 150.986,277.682 144.819,283.682 138.5,289.5C 133.833,286.5 129.167,283.5 124.5,280.5C 118.51,282.32 113.01,284.987 108,288.5C 106.842,293.457 106.008,298.457 105.5,303.5C 96.1607,303.666 86.8274,303.5 77.5,303C 76.0844,297.927 74.9178,292.76 74,287.5C 68.7666,284.976 63.4333,282.643 58,280.5C 54.6045,282.739 51.1045,284.739 47.5,286.5 Z"/></g>
<g><path style="opacity:1" fill="#4db0fb" d="M 410.5,141.5 C 418.174,141.334 425.841,141.5 433.5,142C 434.766,147.157 436.1,152.323 437.5,157.5C 442.859,159.848 448.193,162.181 453.5,164.5C 454.799,166.099 456.465,166.599 458.5,166C 462.388,163.228 466.388,160.728 470.5,158.5C 476.342,163.509 481.675,169.009 486.5,175C 483.756,179.82 480.756,184.487 477.5,189C 479.962,194.092 482.295,199.259 484.5,204.5C 489.427,206.086 494.427,207.419 499.5,208.5C 500.498,217.81 500.832,227.143 500.5,236.5C 494.888,236.953 489.554,238.286 484.5,240.5C 482.26,245.726 479.926,250.893 477.5,256C 480.696,260.364 483.696,264.864 486.5,269.5C 481.146,275.521 475.479,281.188 469.5,286.5C 466.011,283.863 462.345,281.363 458.5,279C 456.326,278.123 454.659,278.623 453.5,280.5C 447.833,282.416 442.333,284.75 437,287.5C 436.082,292.76 434.916,297.927 433.5,303C 425.841,303.5 418.174,303.666 410.5,303.5C 409.808,297.281 408.474,291.281 406.5,285.5C 400.495,283.164 394.495,280.83 388.5,278.5C 386.962,278.453 385.962,279.12 385.5,280.5C 382.709,282.735 379.709,284.735 376.5,286.5C 370.521,281.188 364.854,275.521 359.5,269.5C 362.382,264.897 365.382,260.397 368.5,256C 365.931,249.46 363.264,242.96 360.5,236.5C 355.822,234.479 350.988,233.145 346,232.5C 345.5,225.508 345.334,218.508 345.5,211.5C 350.537,211.092 355.537,210.426 360.5,209.5C 362.764,202.379 365.43,195.379 368.5,188.5C 365.624,183.914 362.624,179.414 359.5,175C 365.035,169.297 370.702,163.797 376.5,158.5C 380.078,160.075 383.411,162.075 386.5,164.5C 386.811,165.478 387.478,166.145 388.5,166.5C 394.459,163.902 400.459,161.402 406.5,159C 408.524,153.335 409.858,147.501 410.5,141.5 Z"/></g>
<g><path style="opacity:0.911" fill="#a3a3cd" d="M 245.5,171.5 C 244.167,171.5 242.833,171.5 241.5,171.5C 240.799,165.988 239.465,160.655 237.5,155.5C 232.289,153.392 227.289,151.058 222.5,148.5C 222.811,147.522 223.478,146.855 224.5,146.5C 230.382,149.353 236.382,152.02 242.5,154.5C 244.334,160.001 245.334,165.668 245.5,171.5 Z"/></g>
<g><path style="opacity:0.937" fill="#2ed72e" d="M 47.5,158.5 C 41.7019,163.797 36.0353,169.297 30.5,175C 33.7556,179.513 36.7556,184.18 39.5,189C 36.6952,195.443 34.0285,201.943 31.5,208.5C 26.7555,210.649 21.7555,211.649 16.5,211.5C 16.5,218.5 16.5,225.5 16.5,232.5C 21.4351,233.127 26.2684,234.127 31,235.5C 34.2475,242.162 37.0808,248.995 39.5,256C 36.8781,260.741 33.8781,265.241 30.5,269.5C 35.8543,275.521 41.521,281.188 47.5,286.5C 46.3347,288.416 44.668,289.249 42.5,289C 36.6667,283.167 30.8333,277.333 25,271.5C 26.4063,265.707 29.2396,260.541 33.5,256C 31.0736,250.893 28.7403,245.726 26.5,240.5C 21.3453,238.535 16.012,237.201 10.5,236.5C 10.5,227.167 10.5,217.833 10.5,208.5C 16.012,207.799 21.3453,206.465 26.5,204.5C 28.7046,199.259 31.038,194.092 33.5,189C 29.2396,184.459 26.4063,179.293 25,173.5C 30.8333,167.667 36.6667,161.833 42.5,156C 44.668,155.751 46.3347,156.584 47.5,158.5 Z"/></g>
<g><path style="opacity:0.927" fill="#2a92fa" d="M 376.5,158.5 C 370.702,163.797 365.035,169.297 359.5,175C 362.624,179.414 365.624,183.914 368.5,188.5C 365.43,195.379 362.764,202.379 360.5,209.5C 355.537,210.426 350.537,211.092 345.5,211.5C 345.334,218.508 345.5,225.508 346,232.5C 350.988,233.145 355.822,234.479 360.5,236.5C 363.264,242.96 365.931,249.46 368.5,256C 365.382,260.397 362.382,264.897 359.5,269.5C 364.854,275.521 370.521,281.188 376.5,286.5C 375.125,288.07 373.459,288.903 371.5,289C 365.667,283.167 359.833,277.333 354,271.5C 353.333,270.167 353.333,268.833 354,267.5C 356.765,263.63 359.265,259.63 361.5,255.5C 359.731,249.465 357.065,243.965 353.5,239C 348.543,237.842 343.543,237.008 338.5,236.5C 338.5,227.167 338.5,217.833 338.5,208.5C 344.291,207.675 349.958,206.342 355.5,204.5C 357.502,199.494 359.502,194.494 361.5,189.5C 359.521,184.877 357.021,180.544 354,176.5C 353.333,175.5 353.333,174.5 354,173.5C 359.833,167.667 365.667,161.833 371.5,156C 373.668,155.751 375.335,156.584 376.5,158.5 Z"/></g>
<g><path style="opacity:0.92" fill="#2b93fa" d="M 470.5,158.5 C 466.388,160.728 462.388,163.228 458.5,166C 456.465,166.599 454.799,166.099 453.5,164.5C 458.138,161.511 462.805,158.511 467.5,155.5C 468.855,156.188 469.855,157.188 470.5,158.5 Z"/></g>
<g><path style="opacity:1" fill="#f2f2fd" d="M 88.5,181.5 C 111.583,181.74 126.083,193.074 132,215.5C 133.448,240.974 121.948,256.974 97.5,263.5C 73.2079,264.687 57.7079,253.687 51,230.5C 47.9161,207.494 57.0827,191.661 78.5,183C 81.7568,181.957 85.0901,181.457 88.5,181.5 Z"/></g>
<g><path style="opacity:1" fill="#f1f2fe" d="M 429.5,182.5 C 453.688,190.534 463.855,207.2 460,232.5C 455.777,246.889 446.611,256.555 432.5,261.5C 409.696,266.846 392.862,259.18 382,238.5C 374.383,212.569 382.883,194.069 407.5,183C 414.825,181.299 422.158,181.133 429.5,182.5 Z"/></g>
<g><path style="opacity:1" fill="#37d836" d="M 88.5,181.5 C 111.467,179.272 127.3,188.938 136,210.5C 140.373,236.602 130.206,254.102 105.5,263C 102.854,263.497 100.187,263.664 97.5,263.5C 121.948,256.974 133.448,240.974 132,215.5C 126.083,193.074 111.583,181.74 88.5,181.5 Z"/></g>
<g><path style="opacity:1" fill="#3395fa" d="M 429.5,182.5 C 446.043,183.809 457.543,192.475 464,208.5C 470.069,234.196 460.902,252.03 436.5,262C 434.934,262.765 433.601,262.598 432.5,261.5C 446.611,256.555 455.777,246.889 460,232.5C 463.855,207.2 453.688,190.534 429.5,182.5 Z"/></g>
<g><path style="opacity:0.969" fill="#fcdd33" d="M 252.5,264.5 C 255.365,264.055 257.865,264.722 260,266.5C 260.667,275.5 260.667,284.5 260,293.5C 257.847,295.444 255.347,295.944 252.5,295C 251.107,293.829 250.273,292.329 250,290.5C 249.333,283.5 249.333,276.5 250,269.5C 250.366,267.548 251.199,265.882 252.5,264.5 Z"/></g>
<g><path style="opacity:0.94" fill="#2b93fa" d="M 410.5,303.5 C 408.833,303.5 407.167,303.5 405.5,303.5C 404.993,298.125 404.16,292.792 403,287.5C 397.432,284.464 391.598,282.131 385.5,280.5C 385.962,279.12 386.962,278.453 388.5,278.5C 394.495,280.83 400.495,283.164 406.5,285.5C 408.474,291.281 409.808,297.281 410.5,303.5 Z"/></g>
<g><path style="opacity:0.879" fill="#2b93fa" d="M 469.5,286.5 C 468.878,287.627 468.045,288.627 467,289.5C 462.618,286.278 458.118,283.278 453.5,280.5C 454.659,278.623 456.326,278.123 458.5,279C 462.345,281.363 466.011,283.863 469.5,286.5 Z"/></g>
<g><path style="opacity:0.926" fill="#fcdb35" d="M 177.5,293.5 C 179.527,293.338 181.527,293.505 183.5,294C 188.217,299.262 193.051,304.429 198,309.5C 201.113,316.46 198.947,319.626 191.5,319C 186.218,313.595 181.051,308.095 176,302.5C 175.068,299.177 175.568,296.177 177.5,293.5 Z"/></g>
<g><path style="opacity:0.93" fill="#fcdb35" d="M 327.5,293.5 C 334.503,292.673 337.003,295.673 335,302.5C 329.949,308.095 324.782,313.595 319.5,319C 312.053,319.626 309.887,316.46 313,309.5C 318.074,304.324 322.908,298.99 327.5,293.5 Z"/></g>
<g><path style="opacity:0.931" fill="#7887bf" d="M 29.5,307.5 C 31.8568,307.337 34.1902,307.503 36.5,308C 42.9592,312.79 49.1259,317.957 55,323.5C 57.2659,328.302 55.7659,331.302 50.5,332.5C 48.3033,332.152 46.47,331.152 45,329.5C 70.7653,399.594 119.265,446.428 190.5,470C 194.428,474.561 193.594,478.061 188,480.5C 111.832,455.666 59.8322,405.666 32,330.5C 30.8409,338.546 26.8409,340.546 20,336.5C 21.403,326.336 24.5697,316.669 29.5,307.5 Z"/></g>
<g><path style="opacity:0.929" fill="#7886be" d="M 476.5,306.5 C 480.644,306.429 482.978,308.429 483.5,312.5C 461.935,389.228 414.602,443.395 341.5,475C 347.137,475.302 349.97,478.135 350,483.5C 348.666,487.104 346.166,488.271 342.5,487C 334.758,484.531 327.092,481.864 319.5,479C 316.849,475.756 317.016,472.59 320,469.5C 324.5,463.667 329,457.833 333.5,452C 338.357,450.247 341.357,451.747 342.5,456.5C 342.152,458.697 341.152,460.53 339.5,462C 398.214,437.953 439.714,396.453 464,337.5C 467.307,328.273 470.307,318.939 473,309.5C 474.145,308.364 475.312,307.364 476.5,306.5 Z"/></g>
<g><path style="opacity:0.977" fill="#fcdb36" d="M 263.5,310.5 C 210.655,321.17 191.821,352.503 207,404.5C 215.667,418.5 224.333,432.5 233,446.5C 235.259,452.293 236.425,458.293 236.5,464.5C 230.833,464.5 225.167,464.5 219.5,464.5C 218.887,453.495 215.387,443.495 209,434.5C 199.619,423.078 192.286,410.411 187,396.5C 177.038,353.919 192.871,326.086 234.5,313C 244.061,310.977 253.727,310.143 263.5,310.5 Z"/></g>
<g><path style="opacity:1" fill="#feea86" d="M 263.5,310.5 C 308.539,316.692 329.372,342.359 326,387.5C 323.881,399.07 319.548,409.737 313,419.5C 306.003,428.154 300.003,437.487 295,447.5C 292.872,452.975 291.705,458.642 291.5,464.5C 281.167,464.5 270.833,464.5 260.5,464.5C 260.333,451.829 260.5,439.162 261,426.5C 274.502,418.379 280.168,406.379 278,390.5C 274.521,383.349 269.354,381.849 262.5,386C 255.244,394.027 251.41,403.527 251,414.5C 249.667,413.167 248.333,411.833 247,410.5C 243.951,403.669 241.118,396.836 238.5,390C 234.269,388.733 231.602,390.233 230.5,394.5C 232.027,407.907 238.36,418.24 249.5,425.5C 250.499,438.483 250.832,451.483 250.5,464.5C 245.833,464.5 241.167,464.5 236.5,464.5C 236.425,458.293 235.259,452.293 233,446.5C 224.333,432.5 215.667,418.5 207,404.5C 191.821,352.503 210.655,321.17 263.5,310.5 Z"/></g>
<g><path style="opacity:0.929" fill="#fcdb34" d="M 140.5,365.5 C 149.614,365.293 158.614,366.127 167.5,368C 171.496,372.852 170.496,376.352 164.5,378.5C 156.474,377.531 148.474,376.364 140.5,375C 137.914,371.839 137.914,368.672 140.5,365.5 Z"/></g>
<g><path style="opacity:0.933" fill="#fcdb35" d="M 356.5,365.5 C 361.179,365.334 365.845,365.501 370.5,366C 373.167,369 373.167,372 370.5,375C 362.526,376.364 354.526,377.531 346.5,378.5C 340.504,376.352 339.504,372.852 343.5,368C 347.94,367.034 352.273,366.201 356.5,365.5 Z"/></g>
<g><path style="opacity:1" fill="#f9ad05" d="M 260.5,464.5 C 257.167,464.5 253.833,464.5 250.5,464.5C 250.832,451.483 250.499,438.483 249.5,425.5C 238.36,418.24 232.027,407.907 230.5,394.5C 231.602,390.233 234.269,388.733 238.5,390C 241.118,396.836 243.951,403.669 247,410.5C 248.333,411.833 249.667,413.167 251,414.5C 251.41,403.527 255.244,394.027 262.5,386C 269.354,381.849 274.521,383.349 278,390.5C 280.168,406.379 274.502,418.379 261,426.5C 260.5,439.162 260.333,451.829 260.5,464.5 Z"/></g>
<g><path style="opacity:1" fill="#fee77f" d="M 267.5,394.5 C 268.675,401.499 266.842,407.833 262,413.5C 261.898,406.635 263.732,400.302 267.5,394.5 Z"/></g>
<g><path style="opacity:1" fill="#a6a48f" d="M 219.5,464.5 C 225.167,464.5 230.833,464.5 236.5,464.5C 236.5,464.833 236.5,465.167 236.5,465.5C 231.167,465.5 225.833,465.5 220.5,465.5C 220.5,468.833 220.5,472.167 220.5,475.5C 219.518,472.038 219.185,468.371 219.5,464.5 Z"/></g>
<g><path style="opacity:1" fill="#7d88bc" d="M 236.5,465.5 C 235.289,473.446 237.956,479.446 244.5,483.5C 241.615,483.194 238.948,483.527 236.5,484.5C 228.686,485.6 223.352,482.6 220.5,475.5C 220.5,472.167 220.5,468.833 220.5,465.5C 225.833,465.5 231.167,465.5 236.5,465.5 Z"/></g>
<g><path style="opacity:1" fill="#919ccf" d="M 236.5,464.5 C 241.167,464.5 245.833,464.5 250.5,464.5C 253.833,464.5 257.167,464.5 260.5,464.5C 270.833,464.5 281.167,464.5 291.5,464.5C 293.639,478.017 287.973,484.683 274.5,484.5C 265.682,483.507 256.682,483.173 247.5,483.5C 246.5,483.5 245.5,483.5 244.5,483.5C 237.956,479.446 235.289,473.446 236.5,465.5C 236.5,465.167 236.5,464.833 236.5,464.5 Z"/></g>
<g><path style="opacity:0.98" fill="#5e699f" d="M 244.5,483.5 C 245.5,483.5 246.5,483.5 247.5,483.5C 248.267,487.415 248.767,491.415 249,495.5C 250.73,497.402 252.563,499.069 254.5,500.5C 240.515,503.841 234.515,498.507 236.5,484.5C 238.948,483.527 241.615,483.194 244.5,483.5 Z"/></g>
<g><path style="opacity:1" fill="#7986be" d="M 247.5,483.5 C 256.682,483.173 265.682,483.507 274.5,484.5C 274.665,488.182 274.499,491.848 274,495.5C 273.535,496.931 272.701,498.097 271.5,499C 265.956,500.404 260.29,500.904 254.5,500.5C 252.563,499.069 250.73,497.402 249,495.5C 248.767,491.415 248.267,487.415 247.5,483.5 Z"/></g>
</svg>
