<svg xmlns="http://www.w3.org/2000/svg" width="512" height="512" style="shape-rendering:geometricPrecision;text-rendering:geometricPrecision;image-rendering:optimizeQuality;fill-rule:evenodd;clip-rule:evenodd"><path style="opacity:.988" fill="#605f6c" d="M102.5-.5h30c22.498 3.585 42.498 12.585 60 27 21.028 33.963 24.694 69.797 11 107.5a275.662 275.662 0 0 0 23 21.5c-.231 3.285 1.103 5.785 4 7.5a4577.521 4577.521 0 0 1 59 53.5 252.788 252.788 0 0 1-18 20 265.628 265.628 0 0 1-14-13.5c-8.647-7.331-17.98-8.331-28-3l-22 22c2.472 5.701 3.472 11.701 3 18l-.5 11.5c-.728 2.687-1.895 5.02-3.5 7a1844.04 1844.04 0 0 0-49-53 43.842 43.842 0 0 0-4.5-7 165.008 165.008 0 0 0-18-18c-40.006 13.422-76.84 7.589-110.5-17.5-.937-.692-1.603-.525-2 .5C1.956 153.263-3.878 120.263 5 84.5c2.665-4.934 6.498-6.101 11.5-3.5a1313.039 1313.039 0 0 0 62 60c5.993 2.28 11.66 1.613 17-2L141 93.5c3.333-6.667 3.333-13.333 0-20a2500.358 2500.358 0 0 1-59-60c-1.027-3.68-.194-6.847 2.5-9.5a309.22 309.22 0 0 1 18-4.5z"/><path style="opacity:.977" fill="#e8eaf1" d="M499.5 55.5c-1.008 2.528-2.674 4.695-5 6.5l-36 19a41503.2 41503.2 0 0 0-171 171.5c-5.667-5-11-10.333-16-16a252.788 252.788 0 0 0 18-20A32325.26 32325.26 0 0 0 441 65.5 432.445 432.445 0 0 1 462.5 27c3-2 6-2 9 0a1123.815 1123.815 0 0 1 28 28.5z"/><path style="opacity:.998" fill="#53515e" d="M192.5 26.5c34.692 31.242 47.525 69.909 38.5 116-1.035 4.608-2.535 8.941-4.5 13a275.662 275.662 0 0 1-23-21.5c13.694-37.703 10.028-73.537-11-107.5z"/><path style="opacity:1" fill="#c7cad3" d="M499.5 55.5a95.284 95.284 0 0 1 8.5 8c1.422 2.53 1.755 5.197 1 8a37.04 37.04 0 0 1-10.5 7.5 594.707 594.707 0 0 0-29 15 31475.89 31475.89 0 0 0-149 149.5 312.323 312.323 0 0 0-21 21 102.102 102.102 0 0 1-12-12A41503.2 41503.2 0 0 1 458.5 81l36-19c2.326-1.805 3.992-3.972 5-6.5z"/><path style="opacity:1" fill="#53515e" d="M157.5 225.5c-49.684 15.205-92.517 4.205-128.5-33a82.928 82.928 0 0 1-6.5-9c.397-1.025 1.063-1.192 2-.5 33.66 25.089 70.494 30.922 110.5 17.5a165.008 165.008 0 0 1 18 18 43.842 43.842 0 0 1 4.5 7z"/><path style="opacity:.992" fill="#fedb64" d="M271.5 236.5c5 5.667 10.333 11 16 16a102.102 102.102 0 0 0 12 12l1 2c-.518 5.03-1.685 10.03-3.5 15a341.539 341.539 0 0 1-21.5 22.5c-27.972-7.92-49.806.247-65.5 24.5-5.119 10.097-6.786 20.764-5 32a55.428 55.428 0 0 1 2 12A7789.283 7789.283 0 0 1 101.5 477c-24.516 15.484-48.85 15.317-73-.5-8.983-23.264-6.15-44.931 8.5-65L139.5 309c27.301 7.571 48.801-.263 64.5-23.5 1.411-2.15 2.245-4.484 2.5-7 1.605-1.98 2.772-4.313 3.5-7l.5-11.5c.472-6.299-.528-12.299-3-18l22-22c10.02-5.331 19.353-4.331 28 3a265.628 265.628 0 0 0 14 13.5z"/><path style="opacity:1" fill="#53515e" d="m320.5 243.5 14 13c-4.656 4.498-8.822 9.498-12.5 15-2 5-2 10 0 15a61.622 61.622 0 0 1 10 16c1.209 6.386.209 12.386-3 18-5.588 7.59-12.421 13.756-20.5 18.5-8.674.177-17.34.177-26 0a71.194 71.194 0 0 0-16 4.5 2859.072 2859.072 0 0 1-13-14c6.416-3.555 13.416-5.221 21-5 6.789.396 13.456 1.23 20 2.5l18.5-18.5c7.284-10.068 7.284-20.068 0-30a210.447 210.447 0 0 0-12.5-12l-1-2a312.323 312.323 0 0 1 21-21z"/><path style="opacity:.987" fill="#5f5e6c" d="M334.5 256.5a13514.358 13514.358 0 0 1 145 131c14.788 32.131 9.121 59.964-17 83.5-19.902 13.524-41.235 16.191-64 8-7.56-3.272-14.226-7.772-20-13.5a9707.285 9707.285 0 0 1-112-122 71.194 71.194 0 0 1 16-4.5c8.66.177 17.326.177 26 0 8.079-4.744 14.912-10.91 20.5-18.5 3.209-5.614 4.209-11.614 3-18a61.622 61.622 0 0 0-10-16c-2-5-2-10 0-15 3.678-5.502 7.844-10.502 12.5-15zm107 168c18.214 2.039 24.38 11.705 18.5 29-10.037 11.357-20.37 11.69-31 1-6.54-14.577-2.373-24.577 12.5-30z"/><path style="opacity:1" fill="#fec850" d="M300.5 266.5a210.447 210.447 0 0 1 12.5 12c7.284 9.932 7.284 19.932 0 30L294.5 327a151.023 151.023 0 0 0-20-2.5c-7.584-.221-14.584 1.445-21 5-19.164 9.474-29.164 24.974-30 46.5a168.009 168.009 0 0 0 2.5 19.5L122.5 499c-8.3 5.819-17.3 9.985-27 12.5h-22c-20.527-4.524-35.527-16.191-45-35 24.15 15.817 48.484 15.984 73 .5A7789.283 7789.283 0 0 0 207 372.5a55.428 55.428 0 0 0-2-12c-1.786-11.236-.119-21.903 5-32 15.694-24.253 37.528-32.42 65.5-24.5a341.539 341.539 0 0 0 21.5-22.5c1.815-4.97 2.982-9.97 3.5-15z"/><path style="opacity:1" fill="#ff6b5c" d="M149.5 346.5c8.328-.837 12.161 2.83 11.5 11L80.5 438c-8.616 1.717-12.449-1.783-11.5-10.5a9212.518 9212.518 0 0 0 80.5-81z"/><path style="opacity:1" fill="#ff6d5c" d="M178.5 374.5c9.052.118 12.219 4.451 9.5 13L109.5 466c-5.261 2.748-9.428 1.581-12.5-3.5-.938-3.38-.271-6.38 2-9a8867.468 8867.468 0 0 1 79.5-79z"/><path style="opacity:1" fill="#53515e" d="M479.5 387.5c27.512 20.371 36.346 47.037 26.5 80-15.961 33.229-42.128 46.062-78.5 38.5a85.004 85.004 0 0 1-22-11c-9.966-9.124-18.966-18.958-27-29.5 5.774 5.728 12.44 10.228 20 13.5 22.765 8.191 44.098 5.524 64-8 26.121-23.536 31.788-51.369 17-83.5z"/></svg>