<?xml version="1.0" encoding="UTF-8"?>
<!DOCTYPE svg PUBLIC "-//W3C//DTD SVG 1.1//EN" "http://www.w3.org/Graphics/SVG/1.1/DTD/svg11.dtd">
<svg xmlns="http://www.w3.org/2000/svg" version="1.1" width="512px" height="512px" style="shape-rendering:geometricPrecision; text-rendering:geometricPrecision; image-rendering:optimizeQuality; fill-rule:evenodd; clip-rule:evenodd" xmlns:xlink="http://www.w3.org/1999/xlink">
<g><path style="opacity:0.987" fill="#3594c7" d="M 255.5,37.5 C 301.887,40.6058 331.053,64.6058 343,109.5C 349.28,156.084 331.447,189.584 289.5,210C 278.586,214.396 267.252,216.562 255.5,216.5C 255.5,156.833 255.5,97.1667 255.5,37.5 Z"/></g>
<g><path style="opacity:1" fill="#16dbf9" d="M 255.5,37.5 C 255.5,97.1667 255.5,156.833 255.5,216.5C 209.398,213.553 180.231,189.886 168,145.5C 161.666,99.3289 179.166,65.8289 220.5,45C 231.79,40.5644 243.457,38.0644 255.5,37.5 Z"/></g>
<g><path style="opacity:0.982" fill="#2fd163" d="M 94.5,121.5 C 124.932,120.141 147.099,133.141 161,160.5C 172.239,192.047 165.405,218.881 140.5,241C 128.338,249.999 114.671,254.499 99.5,254.5C 99.5,210.167 99.5,165.833 99.5,121.5C 97.8333,121.5 96.1667,121.5 94.5,121.5 Z"/></g>
<g><path style="opacity:0.982" fill="#ff504a" d="M 406.5,121.5 C 436.897,120.126 459.064,133.126 473,160.5C 485.237,195.449 476.404,223.615 446.5,245C 433.019,253.02 418.685,255.853 403.5,253.5C 406.167,253.5 408.833,253.5 411.5,253.5C 411.5,209.5 411.5,165.5 411.5,121.5C 409.833,121.5 408.167,121.5 406.5,121.5 Z"/></g>
<g><path style="opacity:1" fill="#7dfe75" d="M 94.5,121.5 C 96.1667,121.5 97.8333,121.5 99.5,121.5C 99.5,165.833 99.5,210.167 99.5,254.5C 64.9988,252.5 43.1655,234.833 34,201.5C 29.3274,173.359 38.1607,150.526 60.5,133C 70.6595,125.669 81.9929,121.836 94.5,121.5 Z"/></g>
<g><path style="opacity:1" fill="#ff7858" d="M 406.5,121.5 C 408.167,121.5 409.833,121.5 411.5,121.5C 411.5,165.5 411.5,209.5 411.5,253.5C 408.833,253.5 406.167,253.5 403.5,253.5C 377.306,249.979 359.139,235.979 349,211.5C 339.253,179.972 347.087,153.805 372.5,133C 382.791,126.018 394.124,122.185 406.5,121.5 Z"/></g>
<g><path style="opacity:0.997" fill="#3593c6" d="M 256.5,233.5 C 272.837,233.333 289.17,233.5 305.5,234C 333.297,236.546 353.63,250.046 366.5,274.5C 370.379,281.673 372.879,289.339 374,297.5C 374.667,352.167 374.667,406.833 374,461.5C 372.316,467.016 368.816,470.682 363.5,472.5C 360.833,472.5 358.167,472.5 355.5,472.5C 322.5,472.5 289.5,472.5 256.5,472.5C 256.5,392.833 256.5,313.167 256.5,233.5 Z"/></g>
<g><path style="opacity:1" fill="#16dbf9" d="M 205.5,234.5 C 222.167,234.5 238.833,234.5 255.5,234.5C 255.5,313.833 255.5,393.167 255.5,472.5C 222.167,472.5 188.833,472.5 155.5,472.5C 146.778,473.725 140.612,470.391 137,462.5C 136.333,407.5 136.333,352.5 137,297.5C 138.265,289.543 140.432,281.877 143.5,274.5C 156.931,250.109 177.598,236.775 205.5,234.5 Z"/></g>
<g><path style="opacity:1" fill="#24b8e1" d="M 205.5,234.5 C 222.325,233.503 239.325,233.17 256.5,233.5C 256.5,313.167 256.5,392.833 256.5,472.5C 256.167,472.5 255.833,472.5 255.5,472.5C 255.5,393.167 255.5,313.833 255.5,234.5C 238.833,234.5 222.167,234.5 205.5,234.5 Z"/></g>
<g><path style="opacity:0.991" fill="#2fd163" d="M 99.5,272.5 C 111.838,272.333 124.171,272.5 136.5,273C 138.92,273.29 141.254,273.79 143.5,274.5C 140.432,281.877 138.265,289.543 137,297.5C 136.333,352.5 136.333,407.5 137,462.5C 140.612,470.391 146.778,473.725 155.5,472.5C 118.167,473.833 80.8333,473.833 43.5,472.5C 62.1667,472.5 80.8333,472.5 99.5,472.5C 99.5,405.833 99.5,339.167 99.5,272.5 Z"/></g>
<g><path style="opacity:0.991" fill="#ff504a" d="M 411.5,272.5 C 423.838,272.333 436.171,272.5 448.5,273C 482.892,279.893 503.892,300.393 511.5,334.5C 511.5,368.833 511.5,403.167 511.5,437.5C 506.348,455.484 494.682,466.984 476.5,472C 454.859,473.113 433.192,473.613 411.5,473.5C 392.664,473.5 373.997,473.167 355.5,472.5C 358.167,472.5 360.833,472.5 363.5,472.5C 379.5,472.5 395.5,472.5 411.5,472.5C 411.5,405.833 411.5,339.167 411.5,272.5 Z"/></g>
<g><path style="opacity:1" fill="#7dfe75" d="M 99.5,272.5 C 99.5,339.167 99.5,405.833 99.5,472.5C 80.8333,472.5 62.1667,472.5 43.5,472.5C 20.5411,471.203 5.87447,459.537 -0.5,437.5C -0.5,403.167 -0.5,368.833 -0.5,334.5C 7.07513,300.427 28.0751,279.927 62.5,273C 74.8288,272.5 87.1622,272.333 99.5,272.5 Z"/></g>
<g><path style="opacity:1" fill="#fe7959" d="M 411.5,272.5 C 411.5,339.167 411.5,405.833 411.5,472.5C 395.5,472.5 379.5,472.5 363.5,472.5C 368.816,470.682 372.316,467.016 374,461.5C 374.667,406.833 374.667,352.167 374,297.5C 372.879,289.339 370.379,281.673 366.5,274.5C 381.412,272.646 396.412,271.979 411.5,272.5 Z"/></g>
</svg>
