<?xml version="1.0" encoding="UTF-8"?>
<!DOCTYPE svg PUBLIC "-//W3C//DTD SVG 1.1//EN" "http://www.w3.org/Graphics/SVG/1.1/DTD/svg11.dtd">
<svg xmlns="http://www.w3.org/2000/svg" version="1.1" width="512px" height="512px" style="shape-rendering:geometricPrecision; text-rendering:geometricPrecision; image-rendering:optimizeQuality; fill-rule:evenodd; clip-rule:evenodd" xmlns:xlink="http://www.w3.org/1999/xlink">
<g><path style="opacity:0.983" fill="#040403" d="M 60.5,29.5 C 190.5,29.3333 320.5,29.5 450.5,30C 467.346,33.1784 478.18,43.0117 483,59.5C 483.667,190.167 483.667,320.833 483,451.5C 478.18,467.988 467.346,477.822 450.5,481C 320.5,481.667 190.5,481.667 60.5,481C 43.6623,477.831 32.829,467.998 28,451.5C 27.3333,320.833 27.3333,190.167 28,59.5C 32.9946,42.9995 43.828,32.9995 60.5,29.5 Z"/></g>
<g><path style="opacity:1" fill="#fbd24e" d="M 58.5,45.5 C 189.167,45.3333 319.834,45.5 450.5,46C 459.229,48.3946 465.062,53.8946 468,62.5C 468.5,79.1633 468.667,95.83 468.5,112.5C 326.5,112.5 184.5,112.5 42.5,112.5C 42.3334,95.83 42.5001,79.1633 43,62.5C 45.9356,54.7339 51.1023,49.0672 58.5,45.5 Z"/></g>
<g><path style="opacity:1" fill="#060502" d="M 271.5,53.5 C 292.971,52.1404 303.471,62.1404 303,83.5C 297.842,99.333 287.009,105.833 270.5,103C 253.268,94.6363 248.768,81.8029 257,64.5C 260.873,59.4896 265.706,55.8229 271.5,53.5 Z"/></g>
<g><path style="opacity:1" fill="#040402" d="M 339.5,53.5 C 363.322,53.4827 373.155,65.1493 369,88.5C 361.698,102.135 350.531,106.635 335.5,102C 321.244,93.1496 317.411,80.9829 324,65.5C 328.02,59.9194 333.186,55.9194 339.5,53.5 Z"/></g>
<g><path style="opacity:1" fill="#040302" d="M 406.5,53.5 C 428.02,52.1907 438.52,62.1907 438,83.5C 433.443,98.6986 423.277,105.199 407.5,103C 392.582,97.7288 386.416,87.2288 389,71.5C 392.353,62.9815 398.186,56.9815 406.5,53.5 Z"/></g>
<g><path style="opacity:1" fill="#f7f7f7" d="M 274.5,68.5 C 286.639,68.7798 290.472,74.4465 286,85.5C 280.667,89.5 275.333,89.5 270,85.5C 265.758,78.2739 267.258,72.6072 274.5,68.5 Z"/></g>
<g><path style="opacity:1" fill="#f9f9f9" d="M 341.5,68.5 C 352.507,67.6732 357.007,72.6732 355,83.5C 349.292,89.7151 343.292,90.0485 337,84.5C 333.975,77.7419 335.475,72.4085 341.5,68.5 Z"/></g>
<g><path style="opacity:1" fill="#f9f9f9" d="M 409.5,68.5 C 420.042,67.5394 424.542,72.2061 423,82.5C 420.081,88.0248 415.581,89.8581 409.5,88C 403.975,85.0812 402.142,80.5812 404,74.5C 405.36,71.9774 407.193,69.9774 409.5,68.5 Z"/></g>
<g><path style="opacity:1" fill="#090702" d="M 76.5,71.5 C 127.501,71.3333 178.501,71.5 229.5,72C 235.133,77.4871 234.466,82.1537 227.5,86C 177.5,86.6667 127.5,86.6667 77.5,86C 72.4648,82.9867 71.2981,78.8201 74,73.5C 74.9947,72.9341 75.828,72.2674 76.5,71.5 Z"/></g>
<g><path style="opacity:1" fill="#eeeeee" d="M 42.5,127.5 C 184.5,127.5 326.5,127.5 468.5,127.5C 468.667,234.167 468.5,340.834 468,447.5C 465.465,456.702 459.631,462.535 450.5,465C 319.833,465.667 189.167,465.667 58.5,465C 50.5074,461.674 45.3407,455.841 43,447.5C 42.5,340.834 42.3333,234.167 42.5,127.5 Z"/></g>
<g><path style="opacity:1" fill="#050403" d="M 243.5,181.5 C 293.55,179.766 331.383,200.099 357,242.5C 378.1,286.384 374.433,328.051 346,367.5C 313.205,405.097 272.372,418.264 223.5,407C 183.571,394.071 157.405,367.571 145,327.5C 133.573,279.45 146.407,239.284 183.5,207C 201.315,193.257 221.315,184.757 243.5,181.5 Z"/></g>
<g><path style="opacity:1" fill="#f75252" d="M 245.5,196.5 C 295.392,195.591 330.225,217.924 350,263.5C 361.866,304.22 353.033,339.72 323.5,370C 286.248,400.725 246.248,404.725 203.5,382C 162.859,353.521 148.359,315.021 160,266.5C 174.934,226.467 203.434,203.134 245.5,196.5 Z"/></g>
<g><path style="opacity:1" fill="#070302" d="M 226.5,241.5 C 230.936,241.21 235.27,241.71 239.5,243C 258.167,255 276.833,267 295.5,279C 299.458,281.234 302.958,284.067 306,287.5C 310.297,296.162 308.797,303.662 301.5,310C 281.5,323 261.5,336 241.5,349C 228.873,355.207 220.373,351.707 216,338.5C 215.333,310.167 215.333,281.833 216,253.5C 217.963,248.044 221.463,244.044 226.5,241.5 Z"/></g>
<g><path style="opacity:1" fill="#f9f9f9" d="M 230.5,256.5 C 232.308,256.491 233.975,256.991 235.5,258C 254.992,270.67 274.325,283.504 293.5,296.5C 277.043,307.901 260.376,319.068 243.5,330C 239.381,332.726 235.048,334.893 230.5,336.5C 230.5,309.833 230.5,283.167 230.5,256.5 Z"/></g>
</svg>
