<?xml version="1.0" encoding="utf-8"?>
<svg xmlns="http://www.w3.org/2000/svg" version="1.1" xmlns:xlink="http://www.w3.org/1999/xlink" width="512" height="512" x="0" y="0" viewBox="0 0 3873 3873" class="icon"><g><clipPath id="a"><path d="M0 1936.5C0 3006 867 3873 1936.5 3873S3873 3006 3873 1936.5 3006 0 1936.5 0 0 867 0 1936.5" fill="#000000" opacity="1" data-original="#000000"></path></clipPath><linearGradient id="b" x1="3511.602" x2="3520.208" y1="771.057" y2="771.057" gradientTransform="matrix(450 0 0 -450 -1580220.75 348912.25)" gradientUnits="userSpaceOnUse"><stop offset="0" stop-color="#963994"></stop><stop offset="1" stop-color="#ec2d2a"></stop></linearGradient><path fill="url(#b)" d="M0 0h3873v3873H0z" clip-path="url(#a)" opacity="1" data-original="url(#b)" class=""></path><g fill="#fff"><path d="M1397.9 3135.8h-23.2c-261.4-4.5-495.5-142.9-626.6-370.3-132.5-227.3-134.6-507.7-5.5-737l374.4-671.7a44.17 44.17 0 0 1 38.7-22.8h486.5c16.1 0 30.9 8.7 38.7 22.8l271.1 486.6c11.9 21.4 4.2 48.3-17.2 60.3-21.4 11.9-48.3 4.2-60.3-17.2L1616 1422.6h-434.5l-361.7 648.9c-113.7 202.1-111.8 449.3 5.1 649.6 112.9 198.8 322.7 322.8 551.2 326h33.7c178.5-.4 348.9-74.4 471-204.7 16.8-17.9 44.9-18.6 62.7-1.8 17.9 16.8 18.6 44.9 1.8 62.7-138.6 147.8-332.1 231.9-534.7 232.4z" fill="#ffffff" opacity="1" data-original="#ffffff"></path><path d="M1659 1422.3h-520.5c-76.6 0-138.7-62.1-138.6-138.7 0-76.6 62-138.6 138.6-138.6H1659c76.6 0 138.7 62 138.7 138.6s-62 138.7-138.7 138.7zm-520.5-188.5c-27.7 0-50.2 22.4-50.2 50.1s22.4 50.2 50.1 50.2H1659c27.7 0 50.2-22.4 50.2-50.1s-22.4-50.2-50.1-50.2h-.1z" fill="#ffffff" opacity="1" data-original="#ffffff"></path><path d="M1608.6 1233.8H1189c-19.2 0-36.2-12.4-42.1-30.7l-110.2-342.6c-4.7-13.5-2.6-28.3 5.5-39.9 36.5-53 88.5-83.4 142.9-83.4s106.8 30.6 143.3 83.8c20 29.3 45 45.4 70.3 45.4s50.2-16.1 70.3-45.4c36.5-53.3 88.5-83.8 143.3-83.8s106.2 30.2 142.7 83c1.3 1.7 2.5 3.6 3.6 5.5 2.3 4.4 3.7 9.2 4.5 14.1.7 4.5.7 9.1 0 13.6-.4 2.3-1 4.7-1.7 6.9l-110.3 342.5c-6.1 18.5-23.2 31-42.5 31zm-387.3-88.5h355.2l93.4-290.2c-17.4-18.9-37.3-29.1-57.4-29.1-25.3 0-50.2 16.1-70.3 45.4-36.5 53.3-88.5 83.8-143.3 83.8-54.5 0-106.8-30.6-143.3-83.9-20-29.2-45-45.3-70.3-45.3-20.1 0-40.1 10.2-57.4 29.1zM747.3 1433c-24.4 0-44.3-19.8-44.3-44.3 0-18.8 11.8-35.4 29.5-41.7l178.9-63.4-178.9-63.2c-23.1-8.2-35.1-33.4-27-56.5 8.2-23.1 33.4-35.1 56.5-27l296.8 105.1c23.1 8.2 35.1 33.4 26.9 56.5-4.5 12.6-14.4 22.5-26.9 26.9L762 1430.7c-4.7 1.5-9.7 2.4-14.7 2.3zM1398.7 2668.2c-131.8-.2-238.7-107-238.9-238.9 0-24.4 19.8-44.3 44.3-44.3 24.4 0 44.3 19.8 44.3 44.3 0 83.1 67.3 150.3 150.3 150.3 83.1 0 150.3-67.3 150.3-150.3 0-83.1-67.3-150.3-150.3-150.3-131.9-.1-238.8-107-238.7-239s107-238.8 239-238.7c131.8.1 238.7 107 238.7 238.9 0 24.4-19.8 44.3-44.3 44.3-24.4 0-44.3-19.8-44.3-44.3 0-83.1-67.3-150.3-150.3-150.3-83.1 0-150.3 67.3-150.3 150.3 0 83.1 67.3 150.3 150.3 150.3 131.9 0 238.9 107 238.9 238.9s-107 238.9-239 238.8z" fill="#ffffff" opacity="1" data-original="#ffffff"></path><path d="M1398.7 1889.9c-24.4 0-44.3-19.8-44.3-44.3v-144.9c0-24.4 19.8-44.3 44.3-44.3 24.4 0 44.3 19.8 44.3 44.3v144.9c0 24.5-19.8 44.3-44.3 44.3zM1398.7 2813.1c-24.4 0-44.3-19.8-44.3-44.3v-144.9c0-24.4 19.8-44.3 44.3-44.3 24.4 0 44.3 19.8 44.3 44.3v144.9c0 24.6-19.8 44.3-44.3 44.3zM3105.4 3135.8H1989.1c-66.4-.1-120.2-53.9-120.2-120.3v-1440c0-66.4 53.8-120.3 120.2-120.3h1116.3c66.4.1 120.2 53.9 120.2 120.3v1439.9c0 66.4-53.8 120.3-120.2 120.4zM1989.1 1543.7c-17.5 0-31.7 14.1-31.7 31.6v1440.1c0 17.5 14.2 31.6 31.7 31.6h1116.3c17.5 0 31.7-14.1 31.7-31.6v-1440c0-17.5-14.2-31.6-31.7-31.6z" fill="#ffffff" opacity="1" data-original="#ffffff"></path><path d="M3027.4 1926.1h-960.2c-24.4 0-44.3-19.8-44.3-44.3v-245.2c0-24.4 19.8-44.3 44.3-44.3h960.2c24.4 0 44.3 19.8 44.3 44.3v245.2c0 24.4-19.8 44.3-44.3 44.3zm-915.9-88.6h871.7v-156.7h-871.7zM3027.4 2255.8h-200.2c-24.4 0-44.3-19.8-44.3-44.3v-200.2c0-24.4 19.8-44.3 44.3-44.3h200.2c24.4 0 44.3 19.8 44.3 44.3v200.2c0 24.5-19.8 44.3-44.3 44.3zm-155.9-88.5h111.7v-111.6h-111.6zM2267.3 2255.8h-200.2c-24.4 0-44.3-19.8-44.3-44.3v-200.2c0-24.4 19.8-44.3 44.3-44.3h200.2c24.4 0 44.3 19.8 44.3 44.3v200.2c-.1 24.5-19.9 44.3-44.3 44.3zm-155.8-88.5H2223v-111.6h-111.6v111.6zM2647.3 2255.8h-200.2c-24.4 0-44.3-19.8-44.3-44.3v-200.2c0-24.4 19.8-44.3 44.3-44.3h200.2c24.4 0 44.3 19.8 44.3 44.3v200.2c0 24.5-19.8 44.3-44.3 44.3zm-155.9-88.5h111.7v-111.6h-111.7zM3027.4 2998.8h-200.2c-24.4 0-44.3-19.8-44.3-44.3v-571.7c0-24.4 19.8-44.3 44.3-44.3h200.2c24.4 0 44.3 19.8 44.3 44.3v571.7c0 24.4-19.8 44.3-44.3 44.3zm-155.9-88.5h111.7V2427h-111.7zM2267.3 2627.3h-200.2c-24.4 0-44.3-19.8-44.3-44.3v-200.2c0-24.4 19.8-44.3 44.3-44.3h200.2c24.4 0 44.3 19.8 44.3 44.3V2583c-.1 24.5-19.9 44.3-44.3 44.3zm-155.8-88.5H2223v-111.7h-111.6v111.7zM2647.3 2627.3h-200.2c-24.4 0-44.3-19.8-44.3-44.3v-200.2c0-24.4 19.8-44.3 44.3-44.3h200.2c24.4 0 44.3 19.8 44.3 44.3V2583c0 24.5-19.8 44.3-44.3 44.3zm-155.9-88.5h111.7v-111.7h-111.7zM2267.3 2998.8h-200.2c-24.4 0-44.3-19.8-44.3-44.3v-200.2c0-24.4 19.8-44.3 44.3-44.3h200.2c24.4 0 44.3 19.8 44.3 44.3v200.2c-.1 24.4-19.9 44.3-44.3 44.3zm-155.8-88.5H2223v-111.7h-111.6v111.7zM2647.3 2998.8h-200.2c-24.4 0-44.3-19.8-44.3-44.3v-200.2c0-24.4 19.8-44.3 44.3-44.3h200.2c24.4 0 44.3 19.8 44.3 44.3v200.2c0 24.4-19.8 44.3-44.3 44.3zm-155.9-88.5h111.7v-111.7h-111.7z" fill="#ffffff" opacity="1" data-original="#ffffff"></path></g></g></svg>