<?xml version="1.0" encoding="utf-8"?>
<svg xmlns="http://www.w3.org/2000/svg" version="1.1" xmlns:xlink="http://www.w3.org/1999/xlink" width="512" height="512" x="0" y="0" viewBox="0 0 512 512" class="icon"><g><linearGradient id="a" x1=".461" x2="512.464" y1="255.517" y2="255.517" gradientUnits="userSpaceOnUse"><stop offset="0" stop-color="#00b8d1"></stop><stop offset="1" stop-color="#5b51a2"></stop></linearGradient><path fill="url(#a)" fill-rule="evenodd" d="M256.464-.482c141.377 0 256 114.659 256 256.035s-114.623 255.963-256 255.963S.461 396.929.461 255.553 115.074-.482 256.464-.482zm-96.073 360.25a3.906 3.906 0 0 0-5.443-.969l-8.767 6.125-2.35-3.362a3.909 3.909 0 0 0-6.4 4.486l4.589 6.564a3.921 3.921 0 0 0 5.443.956l11.967-8.36a3.9 3.9 0 0 0 .965-5.44zm7.827-8.988a3.91 3.91 0 0 0 0-7.819H129.6a3.91 3.91 0 0 0-3.909 3.906v38.627a3.906 3.906 0 0 0 3.909 3.906h38.622a3.91 3.91 0 0 0 0-7.819h-34.715v-30.8zm-7.827-46.351a3.908 3.908 0 0 0-5.443-.964l-8.767 6.125-2.35-3.354a3.909 3.909 0 1 0-6.4 4.484l4.589 6.552a3.919 3.919 0 0 0 5.443.964l11.967-8.36a3.912 3.912 0 0 0 .965-5.447zm7.827-8.982a3.91 3.91 0 0 0 0-7.819H129.6a3.916 3.916 0 0 0-3.909 3.913v38.619a3.916 3.916 0 0 0 3.909 3.914h38.622a3.91 3.91 0 0 0 0-7.82h-34.715v-30.807zm-7.827-46.347a3.9 3.9 0 0 0-5.443-.968l-8.767 6.118-2.35-3.354a3.909 3.909 0 0 0-6.4 4.483l4.589 6.553a3.913 3.913 0 0 0 5.443.969l11.965-8.36a3.9 3.9 0 0 0 .967-5.441zm7.827-8.981a3.91 3.91 0 0 0 0-7.819H129.6a3.906 3.906 0 0 0-3.909 3.906v38.62a3.907 3.907 0 0 0 3.909 3.907h38.622a3.91 3.91 0 0 0 0-7.819h-34.715v-30.8zm-7.827-46.359a3.91 3.91 0 0 0-5.443-.968l-8.767 6.13-2.35-3.36a3.909 3.909 0 1 0-6.4 4.484l4.589 6.56a3.914 3.914 0 0 0 5.443.961l11.965-8.359a3.912 3.912 0 0 0 .967-5.448zm7.827-8.98a3.91 3.91 0 0 0 0-7.82H129.6a3.911 3.911 0 0 0-3.909 3.913V219.5a3.914 3.914 0 0 0 3.909 3.911h38.622a3.91 3.91 0 0 0 0-7.819h-34.715v-30.811zm111.759 150.462h119.35a6.1 6.1 0 0 0 6.092-6.1v-19.633a6.1 6.1 0 0 0-6.092-6.086h-119.35a6.1 6.1 0 0 0-6.093 6.086v19.638a6.1 6.1 0 0 0 6.093 6.1zm125.442 13.911a6.1 6.1 0 0 0-6.092-6.092h-119.35a6.1 6.1 0 0 0-6.093 6.092v19.634a6.1 6.1 0 0 0 6.093 6.092h119.35a6.1 6.1 0 0 0 6.092-6.092zm0 39.638a6.1 6.1 0 0 0-6.092-6.092h-119.35a6.1 6.1 0 0 0-6.093 6.092v19.634a6.1 6.1 0 0 0 6.093 6.092h119.35a6.1 6.1 0 0 0 6.092-6.092zm-297.913 13.347a12.394 12.394 0 0 0 12.38 12.379h147.6a13.807 13.807 0 0 1-1.424-6.092v-19.634a13.872 13.872 0 0 1 4.266-10 13.867 13.867 0 0 1-4.2-8.69H183.8a3.91 3.91 0 0 1 0-7.819h82.271v-13.129a13.872 13.872 0 0 1 4.266-10 13.853 13.853 0 0 1-4.266-10v-14.395H183.8a3.91 3.91 0 0 1 0-7.82h82.519a13.928 13.928 0 0 1 13.658-11.338h55.762v-10.265a55.168 55.168 0 0 1-42.918-25.91H183.8a3.911 3.911 0 0 1 0-7.821h104.972a55.107 55.107 0 0 1 2.384-47.507H183.8a3.91 3.91 0 0 1 0-7.819h112.53a55.044 55.044 0 0 1 39.409-20.931v-10.174h-48.458a20.222 20.222 0 0 1-19.833-16.416H132.391a3.91 3.91 0 1 1 0-7.819h134.694V96.517h-147.2a12.394 12.394 0 0 0-12.38 12.379v293.242zM274.9 102.151v42.824a12.4 12.4 0 0 0 12.377 12.379h42.763l-55.14-55.2zm112.086 128.187a47.334 47.334 0 1 0-47.334 47.333 47.384 47.384 0 0 0 47.334-47.333zm-34.751 12.906c0-3.9-3.695-7.316-8.677-8.521v17.056c4.982-1.2 8.677-4.622 8.677-8.535zm-25.166-25.806c0 3.9 3.7 7.317 8.67 8.521v-17.054c-4.969 1.2-8.67 4.62-8.67 8.533zm8.67-17.962v1.453c-9.385 1.5-16.489 8.336-16.489 16.509s7.1 14.994 16.489 16.5v17.844c-4.969-1.2-8.67-4.622-8.67-8.535a3.91 3.91 0 0 0-7.819 0c0 8.173 7.1 15.007 16.489 16.509v1.453a3.91 3.91 0 1 0 7.819 0v-1.453c9.392-1.5 16.5-8.336 16.5-16.509s-7.105-14.993-16.5-16.5v-17.842c4.982 1.2 8.677 4.62 8.677 8.533a3.91 3.91 0 0 0 7.82 0c0-8.173-7.105-15.006-16.5-16.509v-1.453a3.91 3.91 0 1 0-7.819 0z" opacity="1" data-original="url(#a)" class=""></path></g></svg>