<?xml version="1.0" encoding="utf-8"?>
<svg xmlns="http://www.w3.org/2000/svg" version="1.1" xmlns:xlink="http://www.w3.org/1999/xlink" width="512" height="512" x="0" y="0" viewBox="0 0 512 512" class="icon"><g><linearGradient id="a" x1="16" x2="496" y1="256" y2="256" gradientUnits="userSpaceOnUse"><stop offset=".016" stop-color="#e65233"></stop><stop offset="1" stop-color="#f9a82d"></stop></linearGradient><path fill="url(#a)" fill-rule="evenodd" d="M256 16A240 240 0 1 1 86.3 86.3 239.263 239.263 0 0 1 256 16zm135.427 110.774H132.3v140.109h259.13V126.774zm-226.927 9.24a4.766 4.766 0 0 0-4.766 4.766c0 6.661-4.662 13.339-11.755 13.339a4.765 4.765 0 0 0-4.765 4.766v75.888a4.765 4.765 0 0 0 4.765 4.765c7.093 0 11.755 6.679 11.755 13.34a4.766 4.766 0 0 0 4.766 4.766h194.72a4.766 4.766 0 0 0 4.766-4.766c0-6.661 4.663-13.34 11.755-13.34a4.765 4.765 0 0 0 4.766-4.765v-75.888a4.766 4.766 0 0 0-4.766-4.766c-7.092 0-11.755-6.678-11.755-13.339a4.766 4.766 0 0 0-4.766-4.766zM79.643 326.891l65 102.722 35.63-22.546-65-102.722zm57.274-6.116 45.116 71.3 6.314-3.683a4.742 4.742 0 0 1 3.2-.684l83.08 12a34.723 34.723 0 0 0 12.5-.354c19.7-4.312 98.691-55.493 122.685-69.094a13.613 13.613 0 0 0 6.414-8.242 13.412 13.412 0 0 0-9.3-16.618 14.776 14.776 0 0 0-10.729 1.187l-67.527 34.988c.972 9.889-4.79 18.552-13.712 23a21.43 21.43 0 0 1-16.687 1.19l-66.846-22.387a4.751 4.751 0 1 1 3.015-9.01l66.847 22.386a12.107 12.107 0 0 0 9.427-.706c7.012-3.494 10.787-10.917 7.1-18.317a13.6 13.6 0 0 0-7.853-6.871l-91.51-30.647a33.387 33.387 0 0 0-22.528.115l-59.008 20.45zm218-175.23H168.805c-1.646 8.319-7.691 15.474-16.056 17.53v67.508c8.365 2.056 14.41 9.211 16.056 17.53h186.114c1.646-8.319 7.691-15.474 16.056-17.53v-67.508c-8.365-2.056-14.41-9.211-16.056-17.53zM333.633 201.6h14.236a4.766 4.766 0 1 0 0-9.531h-14.236a4.766 4.766 0 0 0 0 9.531zm-157.778 0h14.235a4.766 4.766 0 1 0 0-9.531h-14.235a4.766 4.766 0 1 0 0 9.531zm86.007-45.906a41.141 41.141 0 1 0 29.09 12.05 41.011 41.011 0 0 0-29.09-12.05zm22.351 18.789a31.612 31.612 0 1 0 9.257 22.351 31.51 31.51 0 0 0-9.257-22.351zm-17.585 43.257a12.558 12.558 0 0 0 9.224-12.426c0-10.327-6.5-11.747-13-13.165-2.725-.594-5.448-1.188-5.448-3.8a3.36 3.36 0 0 1 2.324-3.27 6.355 6.355 0 0 1 4.27 0 3.361 3.361 0 0 1 2.324 3.27 4.766 4.766 0 0 0 9.531 0 12.561 12.561 0 0 0-9.224-12.426v-1.206a4.766 4.766 0 1 0-9.532 0v1.205a12.562 12.562 0 0 0-9.225 12.427c0 10.283 6.482 11.7 12.97 13.113 2.738.6 5.48 1.195 5.48 3.856a3.361 3.361 0 0 1-2.322 3.265 6.5 6.5 0 0 1-4.27 0 3.36 3.36 0 0 1-2.324-3.269 4.766 4.766 0 0 0-9.532 0 12.557 12.557 0 0 0 9.226 12.426v1.2a4.766 4.766 0 0 0 9.532 0z" opacity="1" data-original="url(#a)" class=""></path></g></svg>